<svg xmlns="http://www.w3.org/2000/svg" xmlns:xlink="http://www.w3.org/1999/xlink" viewBox="0 0 24 24"><defs><style>.a{fill:#fff;}.b{clip-path:url(#a);}.c{fill:none;}</style><clipPath id="a"><path class="a" d="M0,0H24V24H0Z"/></clipPath></defs><g class="b"><path class="a" d="M15,3l2.3,2.3L14.41,8.17l1.42,1.42L18.7,6.7,21,9V3ZM3,9,5.3,6.7,8.17,9.59,9.59,8.17,6.7,5.3,9,3H3ZM9,21,6.7,18.7l2.89-2.87L8.17,14.41,5.3,17.3,3,15v6Zm12-6-2.3,2.3-2.87-2.89-1.42,1.42L17.3,18.7,15,21h6Z"/></g><g class="b"><path class="c" d="M0,0H24V24H0Z"/></g></svg>