<svg xmlns="http://www.w3.org/2000/svg" xmlns:xlink="http://www.w3.org/1999/xlink" viewBox="0 0 400.4 305.557"><defs><style>.a,.b{fill:#6c63ff;}.a,.e,.r{opacity:0.1;}.c{fill:#444053;}.d{fill:#3a3768;}.f{fill:#e6e8ec;}.g{opacity:0.2;}.h{fill:url(#a);}.i{fill:#cc818c;}.j{opacity:0.05;}.k{fill:#ff748f;}.l,.n{fill:#575988;}.m{fill:#dce6f2;}.n{opacity:0.5;}.o{fill:#67647e;}.p{fill:#585268;}.q{fill:#e4aab4;}</style><linearGradient id="a" x1="0.871" y1="1" x2="0.871" gradientUnits="objectBoundingBox"><stop offset="0" stop-color="gray" stop-opacity="0.251"/><stop offset="0.54" stop-color="gray" stop-opacity="0.122"/><stop offset="1" stop-color="gray" stop-opacity="0.102"/></linearGradient></defs><g transform="translate(-0.023 0.02)"><path class="a" d="M314.944,114.017C289.719,113.14,265.7,105,242.751,96.088s-45.663-18.778-70.283-23.5c-15.835-3.036-33.943-3.465-46.7,5.024-12.277,8.185-16.245,22.274-18.38,35.362-1.6,9.845-2.545,20.208,1.851,29.426,3.052,6.4,8.473,11.778,12.222,17.9,13.041,21.327,3.823,47.643-10.3,68.451-6.626,9.771-14.319,19.1-19.437,29.488s-7.483,22.313-3.009,32.922c4.439,10.523,15.013,18.412,26.468,23.965,23.26,11.3,50.667,14.51,77.408,16.338,59.171,4.049,118.662,2.3,177.989.542,21.958-.651,44.01-1.31,65.614-4.7,11.992-1.883,24.379-4.876,33.086-12.082,11.053-9.171,13.793-24.7,6.388-36.2-12.425-19.289-46.77-24.079-55.465-44.778-4.782-11.4.129-24.086,7.074-34.656,14.9-22.668,39.883-42.556,41.2-68.467.9-17.8-11.1-35.619-29.671-44.041-19.464-8.824-46.45-7.713-60.8,6.895C363.194,109,337.206,114.8,314.944,114.017Z" transform="translate(-86.32 -65.708)"/><ellipse class="a" cx="144.588" cy="10.749" rx="144.588" ry="10.749" transform="translate(81.397 272.42)"/><path class="b" d="M379.26,695.071s8.185-1.31,13.1,4.478c0,0-3.6,2.837-11.349-1.091Z" transform="translate(-265.073 -446.717)"/><path class="b" d="M371.731,695s-5.219,6.439-2.658,13.583c0,0,4.256-1.707,4.72-10.383Z" transform="translate(-258.425 -446.752)"/><path class="b" d="M365,664.578s3.274-6,16.369,2.4c0,0-1.746,4.038-7.53,3.71S366.52,667.762,365,664.578Z" transform="translate(-256.371 -426.919)"/><path class="b" d="M351.142,666.71s-6.793-.78-7.452,14.775c0,0,4.307.893,7.366-4.026S352.853,669.781,351.142,666.71Z" transform="translate(-243.367 -429.484)"/><path class="b" d="M352.66,625.882s3.819-10.585,17.679-3.056c0,0-3.165,9.712-16.26,6.657Z" transform="translate(-248.841 -401.057)"/><path class="b" d="M341.73,586.48s7.206-10.7,19.975-.78c0,0-4.474,10.04-18.883,4.583Z" transform="translate(-242.171 -377.479)"/><path class="b" d="M337.81,548.815s8.407-9.822,21.066,0c0,0-7.966,8.621-21.066,2.51Z" transform="translate(-239.778 -354.878)"/><path class="b" d="M334.45,510.731s8.516-10.258,20.629-.546c0,0-9.6,9.058-20.629,2.947Z" transform="translate(-237.728 -331.417)"/><path class="b" d="M336.41,473.273s8.964-13.208,20.3-4.256c0,0-9.6,11.349-20.3,6.766Z" transform="translate(-238.924 -306.945)"/><path class="b" d="M341.73,435.165s9.5-13.1,20.52-3.056c0,0-11.24,11.353-20.52,5.456Z" transform="translate(-242.171 -284.01)"/><path class="b" d="M349.091,397.691s11.24-12.3,21.046-7.405c0,0-11.716,13.068-21.537,10.667Z" transform="translate(-246.363 -260.095)"/><path class="b" d="M358.5,360.8s12.986-15.06,20.516-10.04c0,0-9.557,11.692-21.436,12.862Z" transform="translate(-251.843 -236.05)"/><path class="b" d="M372.1,324.619s11.353-12.308,19.647-9.253c0,0-9.713,12.768-21.171,13.1Z" transform="translate(-259.777 -214.782)"/><path class="b" d="M386.806,288.493s12.55-11.79,18.006-9.716c0,0-9.058,13.1-18.552,12.335Z" transform="translate(-269.345 -192.601)"/><path class="b" d="M400.54,250.572s10.8-14.078,16.7-12.986c0,0-6.548,12.55-16.7,14.421Z" transform="translate(-278.06 -167.576)"/><path class="b" d="M413.9,209.639s9.549-10.8,14.705-10.769c0,0-7.538,14.421-15.1,14.288Z" transform="translate(-285.975 -143.986)"/><path class="b" d="M420.963,161.634l9.221-22.484s.464,20.325-10.395,26.655Z" transform="translate(-289.807 -107.542)"/><path class="b" d="M432.306,101.438s1.528-18.77.546-20.3c0,0,6.595,15.59-.612,28.592Z" transform="translate(-297.405 -72.141)"/><path class="b" d="M327.067,632.372s-9.564-5.928-15.757,8.574c0,0,8.512,5.647,16.88-4.876Z" transform="translate(-223.607 -407.801)"/><path class="b" d="M313.716,591.313s-11.731-5.351-17.426,9.79c0,0,9.066,6.236,18.493-5.963Z" transform="translate(-214.441 -382.916)"/><path class="b" d="M303.456,551.165s-8.4-9.822-21.046,0c0,0,7.966,8.621,21.046,2.51Z" transform="translate(-205.97 -356.312)"/><path class="b" d="M301.419,510.731s-8.512-10.258-20.629-.546c0,0,9.607,9.058,20.629,2.947Z" transform="translate(-204.982 -331.417)"/><path class="b" d="M306.739,470.071s-5.971-14.81-18.949-8.43c0,0,7.015,13.115,18.423,10.882Z" transform="translate(-209.254 -303.37)"/><path class="b" d="M313.758,430.165s-5.932-15.048-19.1-8.068c0,0,8.06,13.793,18.513,10.395Z" transform="translate(-213.446 -279.084)"/><path class="b" d="M332.351,383.145s-2.338-16.5-13.251-17.975c0,0,2.311,17.4,11.778,20.949Z" transform="translate(-228.361 -245.472)"/><path class="b" d="M345.095,345.987s-.912-19.877-9.935-20.567c0,0,.3,15.087,8.917,23.385Z" transform="translate(-238.161 -221.214)"/><path class="b" d="M359.193,309.362s-2.693-16.529-11.3-18.552c0,0,1.068,16.011,10.453,22.605Z" transform="translate(-245.93 -200.093)"/><path class="b" d="M380.726,273.468s-.094-17.215-5.351-19.748c0,0-3.266,15.59,3.827,21.947Z" transform="translate(-262.244 -177.459)"/><path class="b" d="M391.547,238.878s-.737-17.73-6.185-20.228c0,0-1.867,14.031,5.367,21.389Z" transform="translate(-268.665 -156.057)"/><path class="b" d="M408.339,202.25s-.035-14.421-3.921-17.8c0,0-3.87,15.8,1.89,20.7Z" transform="translate(-279.65 -135.187)"/><path class="b" d="M413.436,157.414l-3.781-24s-5.141,19.667,3.964,28.331Z" transform="translate(-282.74 -104.039)"/><path class="b" d="M408.619,105.738S398.907,89.6,399.105,87.81c0,0,1.033,16.911,13.251,25.334Z" transform="translate(-277.182 -76.212)"/><path class="b" d="M405.594,82.78S396.427,59.863,392.28,58c0,0,13.1,6.657,14.078,24.118Z" transform="translate(-273.019 -58.02)"/><path class="c" d="M412.4,163.833l-.624-.195c7.736-25.224,9.666-41.313,5.433-45.343l.452-.475C422.151,122.076,420.331,137.985,412.4,163.833Z" transform="translate(-284.919 -94.525)"/><path class="c" d="M357.278,292.02l-.928-.327c.818-2.311,1.707-4.658,2.635-6.969,8.076-20.138,14.947-38.846,19.355-53.224l.807-.39c-4.416,14.378-11.166,33.826-19.25,53.98C358.973,287.389,358.092,289.72,357.278,292.02Z" transform="translate(-251.093 -163.661)"/><path class="c" d="M361.959,522.869c-.125-.14-12.667-14.257-21.4-38.367a142.03,142.03,0,0,1-8.457-43.952c-.6-18.759,3.336-39.707,10.083-58.731l.733.857c-15.138,42.7-9.124,79.294-1.146,101.326,8.648,23.888,21.046,37.852,21.167,37.993Z" transform="translate(-236.256 -255.632)"/><path class="b" d="M247.9,735.79s-14.83-.893-13.08,9.5a2.535,2.535,0,0,0,1.317,2.67s.023-.78,1.52-.511a6.832,6.832,0,0,0,1.61.078,3.36,3.36,0,0,0,1.972-.811h0s4.166-1.723,5.788-8.535c0,0,1.2-1.485,1.15-1.867l-2.5,1.068a4.476,4.476,0,0,1,.183,3.305s-.082-3.239-.561-3.165c-.1,0-1.3.628-1.3.628s1.473,3.145.362,5.429c0,0,.421-3.874-.818-5.2l-1.762,1.029s1.719,3.247.553,5.9c0,0,.3-4.065-.924-5.647l-1.6,1.247s1.614,3.2.631,5.4c0,0-.129-4.731-.978-5.09a9.774,9.774,0,0,0-1.61,1.738s1.107,2.339.421,3.551c0,0-.421-3.153-.78-3.169a10.492,10.492,0,0,0-1.536,3.508,7.585,7.585,0,0,1,1.2-3.718,4.175,4.175,0,0,0-2.128,1.1s.214-1.477,2.471-1.606a10.662,10.662,0,0,1,1.458-1.684,9.139,9.139,0,0,0-3.605.417s1.2-1.391,4.018-.78l1.559-1.286a13.446,13.446,0,0,0-4.209.043s1.442-1.232,4.634-.335l1.715-1.025a15.6,15.6,0,0,0-4.022-.347s1.586-.854,4.525.07l1.228-.55s-1.847-.362-2.385-.421-.573-.207-.573-.207a6.388,6.388,0,0,1,3.469.39A15.875,15.875,0,0,0,247.9,735.79Z" transform="translate(-176.838 -471.632)"/><path class="b" d="M137.3,748.16s-14.81-.893-13.076,9.5a2.529,2.529,0,0,0,1.313,2.67s.027-.779,1.524-.511a6.62,6.62,0,0,0,1.61.078,3.336,3.336,0,0,0,1.968-.811h0s4.17-1.723,5.792-8.535c0,0,1.2-1.485,1.169-1.867l-2.5,1.068a4.476,4.476,0,0,1,.183,3.305s-.082-3.239-.561-3.165c-.1,0-1.3.628-1.3.628s1.473,3.145.362,5.429c0,0,.421-3.874-.822-5.2l-1.762,1.029s1.719,3.247.553,5.9c0,0,.3-4.065-.924-5.647l-1.594,1.247s1.614,3.2.631,5.4c0,0-.129-4.731-.978-5.09a9.775,9.775,0,0,0-1.61,1.738s1.107,2.338.421,3.551c0,0-.421-3.153-.779-3.169a10.574,10.574,0,0,0-1.536,3.508,7.608,7.608,0,0,1,1.2-3.718,4.194,4.194,0,0,0-2.132,1.1s.218-1.477,2.475-1.606a10.481,10.481,0,0,1,1.458-1.68,9.1,9.1,0,0,0-3.605.413s1.2-1.391,4.018-.78l1.559-1.286a13.449,13.449,0,0,0-4.209.043s1.442-1.232,4.634-.335l1.715-1.025a15.618,15.618,0,0,0-4.022-.347s1.586-.854,4.525.07l1.228-.549s-1.847-.362-2.389-.421-.569-.207-.569-.207a6.434,6.434,0,0,1,3.469.39A16.046,16.046,0,0,0,137.3,748.16Z" transform="translate(-109.354 -479.181)"/><path class="b" d="M198.94,777.2s-14.81-.893-13.08,9.5a2.535,2.535,0,0,0,1.317,2.67s.027-.779,1.52-.51a6.851,6.851,0,0,0,1.614.078,3.36,3.36,0,0,0,1.968-.811h0s4.166-1.723,5.788-8.535c0,0,1.2-1.485,1.169-1.867l-2.5,1.068a4.5,4.5,0,0,1,.183,3.305s-.082-3.239-.565-3.165c-.1,0-1.3.628-1.3.628s1.469,3.141.359,5.429c0,0,.421-3.874-.818-5.2l-1.762,1.029s1.719,3.247.553,5.9c0,0,.3-4.065-.924-5.647l-1.6,1.247s1.617,3.2.631,5.4c0,0-.129-4.731-.974-5.09a9.629,9.629,0,0,0-1.61,1.738s1.107,2.339.417,3.551c0,0-.421-3.153-.78-3.169a10.492,10.492,0,0,0-1.536,3.508,7.585,7.585,0,0,1,1.2-3.718,4.175,4.175,0,0,0-2.128,1.1s.214-1.477,2.475-1.606a9.685,9.685,0,0,1,1.454-1.684,9.14,9.14,0,0,0-3.605.417s1.2-1.391,4.018-.76l1.559-1.286a13.449,13.449,0,0,0-4.209.043s1.446-1.232,4.634-.335l1.719-1.025a15.676,15.676,0,0,0-4.01-.335s1.582-.854,4.525.07l1.224-.549s-1.844-.362-2.385-.421-.569-.207-.569-.207a6.388,6.388,0,0,1,3.469.39A15.724,15.724,0,0,0,198.94,777.2Z" transform="translate(-146.964 -496.903)"/><ellipse class="a" cx="10.496" cy="1.773" rx="10.496" ry="1.773" transform="translate(29.919 291.783)"/><ellipse class="a" cx="10.496" cy="1.773" rx="10.496" ry="1.773" transform="translate(362.833 291.783)"/><ellipse class="a" cx="10.496" cy="1.773" rx="10.496" ry="1.773" transform="translate(262.321 301.99)"/><ellipse class="a" cx="10.496" cy="1.773" rx="10.496" ry="1.773" transform="translate(379.432 276.411)"/><ellipse class="a" cx="10.496" cy="1.773" rx="10.496" ry="1.773" transform="translate(50.346 275.305)"/><ellipse class="a" cx="10.496" cy="1.773" rx="10.496" ry="1.773" transform="translate(7.228 280.282)"/><rect class="d" width="168.117" height="249.975" rx="9.8" transform="translate(118.006 31.066)"/><rect class="e" width="139.424" height="49.143" rx="24.572" transform="translate(133.393 52.553)"/><rect class="f" width="137.311" height="47.53" rx="10.2" transform="translate(134.29 53.512)"/><rect class="e" width="27.727" height="30.806" rx="10.79" transform="translate(138.249 122.165)"/><rect class="e" width="27.727" height="30.806" rx="10.79" transform="translate(172.138 122.165)"/><rect class="e" width="27.727" height="30.806" rx="10.79" transform="translate(206.026 122.165)"/><rect class="e" width="27.727" height="30.806" rx="13.863" transform="translate(239.915 122.82)"/><rect class="b" width="27.727" height="30.806" rx="10.79" transform="translate(239.915 122.165)"/><rect class="e" width="27.727" height="30.806" rx="10.79" transform="translate(138.249 156.054)"/><rect class="e" width="27.727" height="30.806" rx="10.79" transform="translate(172.138 156.054)"/><rect class="e" width="27.727" height="30.806" rx="10.79" transform="translate(206.026 156.054)"/><rect class="e" width="27.727" height="30.806" rx="10.79" transform="translate(138.249 193.462)"/><rect class="e" width="27.727" height="30.806" rx="10.79" transform="translate(172.138 193.462)"/><rect class="e" width="27.727" height="30.806" rx="10.79" transform="translate(206.026 193.462)"/><rect class="e" width="27.727" height="30.806" rx="10.79" transform="translate(206.026 230.87)"/><rect class="e" width="27.727" height="30.806" rx="13.863" transform="translate(239.915 156.709)"/><rect class="b" width="27.727" height="30.806" rx="11.3" transform="translate(239.915 156.054)"/><rect class="g" width="27.727" height="30.806" rx="11.3" transform="translate(239.915 156.054)"/><rect class="e" width="61.615" height="30.806" rx="10.04" transform="translate(138.249 230.87)"/><rect class="e" width="30.365" height="68.217" rx="11.66" transform="translate(237.272 193.462)"/><rect class="b" width="12.137" height="1.313" transform="translate(253.299 92.74)"/><rect class="b" width="12.137" height="1.313" transform="translate(235.53 92.74)"/><rect class="b" width="12.137" height="1.313" transform="translate(217.758 92.74)"/><rect class="b" width="12.137" height="1.313" transform="translate(199.989 92.74)"/><path class="h" d="M840.443,444.77a16.537,16.537,0,0,0,0-8.419V432.38s1.43-7.764-4.954-12.745l-4.233-3.734a15.794,15.794,0,0,0-3.063-2.167,3.125,3.125,0,0,0-.39-.059l-.125-.074a12.751,12.751,0,0,1-.928-1.949,1.805,1.805,0,0,0,1.508-.514,1.949,1.949,0,0,0,.354-.6h0c.246-.55.288-1.216.495-1.8a4.29,4.29,0,0,1,.78-1.294c-.043.07-.09.136-.129.21.6-.748,1.384-1.387,1.949-2.175a4.866,4.866,0,0,0,.308-.487c-.023.035-.055.066-.082.1a11.08,11.08,0,0,0,1.243-4.229,3.807,3.807,0,0,0,.023-1.512,5.515,5.515,0,0,0-.421-.959c-.92-1.9-.9-4.287-2.374-5.8a7.151,7.151,0,0,0-4.361-1.676,11.332,11.332,0,0,1-4.6-1.134,4.845,4.845,0,0,0-1.243-.682,1.021,1.021,0,0,0-1.22.452.8.8,0,0,1-.164.331.53.53,0,0,1-.468.027l-2.1-.561.023.105h-.055l.078.331a.179.179,0,0,1,.2.113l-.339.522a5.265,5.265,0,0,1-1.894-.39.426.426,0,0,0,0,.1h-.031c-.039.592.635.978.842,1.536a1.169,1.169,0,0,1,0,.752,1.647,1.647,0,0,1-.39.6c-.744.737-1.7.592-2.557,1.056a.554.554,0,0,0-.312.347.254.254,0,0,0-.027.191.453.453,0,0,0,.176.218,3.9,3.9,0,0,0,.815.507c-.086.078-.168.156-.246.238a9.393,9.393,0,0,0,3.247,15.325c.031.164.055.331.078.507v.051l.023.226-2.829,1.2a2.253,2.253,0,0,1-2.027-1.306c-.659-1.36-2.985,0-2.985,0s-7.1-.53-9.744.779c0,0-4.236-1.777-4.833-1.9s-1.489-.592-1.906-.472-.955-.78-1.255-.713-.417-.592-1.372-.83-1.313.062-2.385-1.006-9.786-5.277-9.786-5.277l-3.913-3.219-4.174-3.321-.074.136c-.027-.1-.055-.2-.082-.308a39.985,39.985,0,0,0-1.559-4.868c-.269-.643-.39-1.454-.752-1.025-.222.257-.6-.308-1.169-.69a.986.986,0,0,0-1.469.429h0c-3.25,5.1-4.416,5.456-2.533,7.331,1.68,1.664,2.794,3.118,4.162,3.578l.164.051a.175.175,0,0,1-.09,0l7.935,9.486s5.725,4.981,9.666,6.579,3.636,2.077,3.636,2.077,11.934,6.045,13.781,5.928,1.493,12.39.717,14.421-2.027,16.6-2.027,16.6-1.2,3.083.058,5.215a32.941,32.941,0,0,1,.027,5.067,17.415,17.415,0,0,0-2.892,7.448,4.355,4.355,0,0,1-.047.452,1.056,1.056,0,0,1-.281.23l.265-.078a15,15,0,0,1-.78,3.578,14.544,14.544,0,0,0-.986,5.09v9.416l-.779,5.846s-.955,4.424,0,5.456a2.526,2.526,0,0,1,.522,1.816,3.383,3.383,0,0,0,.608,2.12,1.586,1.586,0,0,1,.39,1.36c-.316,1.025.468,11.934.468,11.934s-.23,3.005-.546,3.165.546,3.476.546,3.476-3.223,2.689-2.4,4.112l.822,1.263-.218.214-.132.136a1.271,1.271,0,0,0-.822-.156,31.413,31.413,0,0,1-3.243,2.888,35.213,35.213,0,0,1-5.41,2.568l-3.118.253h-.058s-1.493-.14-.655,2.171,8.329,1.6,8.329,1.6l4.373-.69s7.795.039,10.028-.456c.932-.207,1.169-.705,1.091-1.208h0l-.023-.023a3.12,3.12,0,0,0-.639-1.306.506.506,0,0,0-.055-.07l.14-1.6c3.309-1.906-.935-5.655-.935-5.655a39.237,39.237,0,0,1,2.2-4.186c.744-1.025.744-16.128.744-16.128s.39-5.456-.635-6.719a2.273,2.273,0,0,1,1.115-2.054c.737-.5,2.962-7.429,4.708-13.177l1.1,6.774s-.238,3.243.475,4.19a1.614,1.614,0,0,1,.3,1.263,5.69,5.69,0,0,0,.16,2.728,1.8,1.8,0,0,0,.581.974c.635.316.674,1.442.912,1.68s1.711-.335,1.789.534a19.716,19.716,0,0,1,0,2.292l.479,14.07s-.779,1.169-.955,4.287a5.515,5.515,0,0,1-.573,2.518,1.29,1.29,0,0,0,.117,1.512l.136.16-.589.452a1.3,1.3,0,0,0-.366,1.6,1.259,1.259,0,0,0-.363,1.364.954.954,0,0,0,.1.222,2.214,2.214,0,0,0-1.189.588,9.742,9.742,0,0,1-2.1,2.113,40.421,40.421,0,0,0-3.348,2.869,4.809,4.809,0,0,1-1.949,1.559,3.211,3.211,0,0,1-.589.175c-1.559.32-1.072,1.949.2,2.218s5.488,1.559,8.769.807a3.1,3.1,0,0,0,2.4-.335,35.336,35.336,0,0,1,4.623-1.614s1.789,0,2.031-.709a2.785,2.785,0,0,0,.1-.694l.051-.051-.047-.043a9.454,9.454,0,0,0-.121-1.586c-.047-.273-.1-.515-.144-.709-.152-.592-.437-1.36-.557-1.684a.59.59,0,0,0,.055-.082c.682-1.169-.452-3.944-.452-3.944a7.554,7.554,0,0,1,1.345-1.594c.635-.475,2.307-12.807,2.307-12.807s-.082-3.161.779-4.583-1.193-10.036-1.193-10.036-.877-1.976-.557-2.689-.32-3.321-.32-3.321V496.08a3.446,3.446,0,0,0-.183-1.091,5.167,5.167,0,0,1-.214-3.149c.557-1.423,1.828-10.2,1.828-10.2s-.994-3.87.464-6.953a6.069,6.069,0,0,1,.39-.713c1.08-1.7.756-4.708.222-7.136-.078-.39-.167-.741-.257-1.08-.035-.148-.074-.288-.113-.429l.172-.07a5.059,5.059,0,0,1,.054-.624,4.381,4.381,0,0,0,2.869-1.984s3.64-4.092,6.86-5.811,3.461-4.209,3.461-4.209c-.475-.83.854-4.209.854-4.209Zm-12.686-31.035Zm2.186,36.492-3.445,3.995V454.2c-.9-1.247.834-4.034.834-4.034l2.865-6.392a3.615,3.615,0,0,1-.39,1.883c-.779,1.068,1.434,2.849,1.434,2.849C830.061,448.507,829.944,450.226,829.944,450.226Z" transform="translate(-497.503 -259.832)"/><path class="i" d="M770.663,399.928l-1.882,3.652a7.407,7.407,0,0,1-1.75-.366,6.626,6.626,0,0,1-4.112-3.555,5.169,5.169,0,0,1,2.393-6.817c1.294-.709,2.5-1.516,3.469.811a40.223,40.223,0,0,1,1.524,4.837C770.53,399.343,770.663,399.928,770.663,399.928Z" transform="translate(-498.882 -261.911)"/><path class="i" d="M913.771,442.586l-3.005,4.474s-14.2,6.774-11.486-1.169a17.849,17.849,0,0,0,1.119-7.842V438a6.308,6.308,0,0,0-1.115-3.18s13.84-7.086,11.778-2.241a6.673,6.673,0,0,0-.487,3.188,10.868,10.868,0,0,0,1.489,4.424,14.7,14.7,0,0,0,1.707,2.4Z" transform="translate(-582.208 -285.573)"/><path class="c" d="M876.327,622.754s2.042,8.574,1.169,9.974-.779,4.556-.779,4.556-1.649,12.254-2.276,12.721a7.488,7.488,0,0,0-1.337,1.559s1.122,2.775.448,3.921a.951.951,0,0,1-.448.39c-1.052.444-4.942-1.528-7.156-2.728a1.263,1.263,0,0,1-.226-2.058,1.286,1.286,0,0,1,.359-1.59l.585-.452-.136-.16a1.29,1.29,0,0,1-.117-1.5,5.461,5.461,0,0,0,.565-2.5,9.151,9.151,0,0,1,.943-4.24l-.472-13.984a19.4,19.4,0,0,0,0-2.276c-.078-.861-1.532-.292-1.766-.53s-.277-1.352-.9-1.668a1.789,1.789,0,0,1-.569-.97,5.608,5.608,0,0,1-.16-2.728,1.61,1.61,0,0,0-.292-1.255c-.705-.943-.472-4.159-.472-4.159l-1.083-6.735c-1.727,5.714-3.921,12.6-4.65,13.1a2.264,2.264,0,0,0-1.1,2.038c1.021,1.259.627,6.68.627,6.68s0,15-.737,16.022a38.768,38.768,0,0,0-2.163,4.178s4.209,3.745.9,5.636h-.035c-3.379,1.886-10.367-3.375-10.367-3.375l.729-.729.214-.214-.826-1.232c-.811-1.415,2.37-4.085,2.37-4.085s-.85-3.3-.538-3.457.538-3.141.538-3.141-.779-10.839-.46-11.86a1.6,1.6,0,0,0-.39-1.352,3.363,3.363,0,0,1-.6-2.1,2.5,2.5,0,0,0-.518-1.8c-.943-1.021,0-5.417,0-5.417l.78-5.815v-9.233a14.721,14.721,0,0,1,.986-5.211,15.586,15.586,0,0,0,.857-4.182,17.535,17.535,0,0,1,2.935-7.518c.569-.873.994-1.4.994-1.4l25.131-.982s.39,1.119.811,2.674c.086.339.172.7.253,1.072.526,2.416.842,5.41-.222,7.093a6.57,6.57,0,0,0-.39.709c-1.438,3.063-.456,6.91-.456,6.91s-1.255,8.715-1.8,10.133a5.09,5.09,0,0,0,.214,3.118,3.548,3.548,0,0,1,.175,1.087v3.106s.631,2.592.316,3.3S876.327,622.754,876.327,622.754Z" transform="translate(-549.086 -377.109)"/><path class="e" d="M924.761,598.223a5.974,5.974,0,0,0-.39.705l-1.415-.078c.136-.729-.826-7.561-.826-7.561l2.849-.16C925.505,593.543,925.825,596.536,924.761,598.223Z" transform="translate(-596.362 -383.365)"/><path class="c" d="M925.361,597.613a6.6,6.6,0,0,0-.39.709l-1.415-.082c.136-.725-.826-7.561-.826-7.561l2.849-.16C926.109,592.936,926.425,595.93,925.361,597.613Z" transform="translate(-596.728 -382.992)"/><path class="j" d="M925.361,597.613a6.6,6.6,0,0,0-.39.709l-1.415-.082c.136-.725-.826-7.561-.826-7.561l2.849-.16C926.109,592.936,926.425,595.93,925.361,597.613Z" transform="translate(-596.728 -382.992)"/><path class="e" d="M905.973,767.54a.952.952,0,0,1-.448.39c-1.052.444-4.942-1.528-7.156-2.728a1.274,1.274,0,0,1-.588-.7c1.263-.23,2.089,1.169,2.089,1.169a1.863,1.863,0,0,1,2.592.627c1.08,1.59,3.395.92,3.395.92Z" transform="translate(-581.502 -489.149)"/><path class="k" d="M891.068,772.738c-.234.709-2,.709-2,.709a37.715,37.715,0,0,0-4.576,1.61,3.129,3.129,0,0,1-2.374.335c-3.239.744-7.405-.55-8.66-.807s-1.746-1.883-.195-2.2a3.133,3.133,0,0,0,.581-.179,4.74,4.74,0,0,0,1.949-1.559A39.879,39.879,0,0,1,879.1,767.8a9.671,9.671,0,0,0,2.073-2.1c1.847-1.629,3.161.608,3.161.608a1.863,1.863,0,0,1,2.592.631c1.08,1.59,3.395.916,3.395.916s.417,1.064.612,1.828c.047.195.1.437.144.709A6.443,6.443,0,0,1,891.068,772.738Z" transform="translate(-565.947 -489.534)"/><circle class="l" cx="0.214" cy="0.214" r="0.214" transform="translate(319.505 277.811)"/><circle class="l" cx="0.214" cy="0.214" r="0.214" transform="translate(317.661 279.537)"/><circle class="l" cx="0.214" cy="0.214" r="0.214" transform="translate(315.787 281.088)"/><circle class="l" cx="0.214" cy="0.214" r="0.214" transform="translate(316.757 280.395)"/><circle class="l" cx="0.214" cy="0.214" r="0.214" transform="translate(318.624 278.621)"/><path class="m" d="M891.068,781c-.234.709-2,.709-2,.709a37.7,37.7,0,0,0-4.576,1.61,3.128,3.128,0,0,1-2.374.335c-3.239.744-7.405-.549-8.66-.807s-1.746-1.882-.195-2.2a3.138,3.138,0,0,0,.581-.179,15.075,15.075,0,0,0,4.248.807c3.2.136,5.733,0,5.733,0l3.239-1.041a5.411,5.411,0,0,1,2-.725,5.237,5.237,0,0,0,1.991-.865A6.117,6.117,0,0,1,891.068,781Z" transform="translate(-565.947 -497.799)"/><path class="n" d="M898.948,785.3a2.677,2.677,0,0,1-.538-.051l.047-.23a3.429,3.429,0,0,0,1.949-.273c.288-.113.577-.249.857-.39a10.749,10.749,0,0,1,1.025-.444l.32-.109c.175-.062.355-.121.526-.195.1-.039.195-.086.288-.132a3.314,3.314,0,0,1,.725-.277,3.573,3.573,0,0,1,.39-.051,3.471,3.471,0,0,0,.359-.043,3.374,3.374,0,0,0,.682-.253,3.3,3.3,0,0,1,.733-.273l.171-.027a.837.837,0,0,0,.507-.187l.175.16a1.058,1.058,0,0,1-.643.261l-.164.027a3.153,3.153,0,0,0-.682.253,3.577,3.577,0,0,1-.733.269,2.606,2.606,0,0,1-.39.047,3.476,3.476,0,0,0-.366.047,3.116,3.116,0,0,0-.674.261l-.3.136c-.179.074-.366.136-.546.2l-.312.109c-.343.125-.678.285-1.006.437s-.577.273-.873.39A4.252,4.252,0,0,1,898.948,785.3Z" transform="translate(-581.887 -500.07)"/><path class="e" d="M901.73,685.624a5.83,5.83,0,0,1,4.42-2.339,17.63,17.63,0,0,0,3.983-.316,9.973,9.973,0,0,1-3.021,1.2A52.748,52.748,0,0,0,901.73,685.624Z" transform="translate(-583.913 -439.41)"/><path class="e" d="M904.15,689.347a6.562,6.562,0,0,1,2.315-1.06c.842-.039,1.559-.117,1.559-.117a4.507,4.507,0,0,1-1.294.627C906.04,688.992,904.15,689.347,904.15,689.347Z" transform="translate(-585.39 -442.584)"/><path class="e" d="M905,693s2.218.175,2.237.78" transform="translate(-585.908 -445.531)"/><path class="e" d="M851.93,601.495a8.8,8.8,0,0,0,2.237-2.884,2.015,2.015,0,0,1,.861-1.271s1.278.51.14,2.077A6.309,6.309,0,0,1,851.93,601.495Z" transform="translate(-553.522 -387.154)"/><path class="e" d="M911.546,432.557c-.452,1.068-.85,1.169-.78,2.186a7.791,7.791,0,0,1-1.8,1.415c-1.4.834-2.931,2.467-4.677,2.467a9.319,9.319,0,0,1-3.418-.647,6.308,6.308,0,0,0-1.115-3.18S913.6,427.713,911.546,432.557Z" transform="translate(-582.711 -285.561)"/><path class="i" d="M906.148,410.894a9.354,9.354,0,1,1-9.354-9.354,9.354,9.354,0,0,1,9.354,9.354Z" transform="translate(-575.192 -267.667)"/><path class="e" d="M913.771,453.807l-3.005,4.474s-14.2,6.774-11.486-1.169a17.849,17.849,0,0,0,1.119-7.842h.023a7.51,7.51,0,0,1,.285,1.8c.043,1.224.074,2.771,3.118,3.282a8.466,8.466,0,0,0,8.247-2.935A14.691,14.691,0,0,0,913.771,453.807Z" transform="translate(-582.208 -296.794)"/><path class="e" d="M777.666,409.814l-1.883,3.652a7.4,7.4,0,0,1-1.75-.366l-.164-.195c.779.3,3.356-4.6,3.356-4.6l.082.066C777.534,409.23,777.666,409.814,777.666,409.814Z" transform="translate(-505.886 -271.798)"/><path class="e" d="M887.061,583.584c-6.064,2.635-27.041.39-27.041.39a2.88,2.88,0,0,0,.105-.686c.569-.873.994-1.4.994-1.4l25.131-.982S886.659,582.029,887.061,583.584Z" transform="translate(-558.459 -377.128)"/><path class="o" d="M824.457,424.883l-2.8,1.2a2.218,2.218,0,0,1-2-1.3c-.651-1.352-2.946,0-2.946,0s-7.015-.53-9.6.779c0,0-4.182-1.769-4.771-1.886s-1.473-.589-1.886-.472-.939-.78-1.235-.705-.413-.589-1.356-.826-1.294.058-2.339-1-9.662-5.242-9.662-5.242l-3.9-3.18-4.123-3.3s-2.592,4.887-3.36,4.591l7.834,9.428s5.655,4.946,9.545,6.536,3.594,2.062,3.594,2.062,11.782,6.01,13.606,5.893,1.481,12.3.7,14.3-2,16.494-2,16.494-1.169,3.063.058,5.184c0,0,.292,4.361,0,5.125,0,0,21.1,2.257,27.1-.413,0,0,.885-9.779,0-11.014s.826-3.991.826-3.991l3.769-8.422,9.19-9.249s1.411-7.717-4.891-12.663l-4.182-3.714a15.483,15.483,0,0,0-3.024-2.151c-.686-.129-.433,0-.433,0a8.438,8.438,0,0,1-8.325,3.036c-3.032-.511-3.063-2.058-3.118-3.278A7.642,7.642,0,0,0,824.457,424.883Z" transform="translate(-506.258 -272.189)"/><path class="e" d="M907.911,531.19s-12.963.53-15.551,4.6a12.763,12.763,0,0,1,6.361-1.122C901.722,535.142,907.911,531.19,907.911,531.19Z" transform="translate(-578.195 -346.786)"/><path class="e" d="M895.53,563s6.127.413,7.425-.885,1.3-2.062,1.3-2.062Z" transform="translate(-580.129 -364.398)"/><path class="e" d="M932.3,499.14s-5.187,6.127,1.119,8.777Z" transform="translate(-601.342 -327.227)"/><path class="e" d="M856.69,468.77s1.886,3.847,2.83,4.1Z" transform="translate(-556.427 -308.694)"/><path class="e" d="M840.37,464.53a69.755,69.755,0,0,0,5.6,4.654S841.076,464.53,840.37,464.53Z" transform="translate(-546.468 -306.107)"/><path class="e" d="M884.532,454.11s-4.537,6.774-1.59,10.913C882.942,465.007,881.294,460.116,884.532,454.11Z" transform="translate(-571.84 -299.748)"/><path class="i" d="M894.917,579.849l-1.388,1.306-.195.179-1.606,1.52c-.113.086-.226.172-.343.25-6.536,4.677-7.846-2.432-7.846-2.432s-2.884,1.886-3.3.355,6.715-3.71,7.795-3.593a1.391,1.391,0,0,0,.285,0,4.459,4.459,0,0,0,1.465-.518l.316-.168a12.445,12.445,0,0,0,1.056-.667Z" transform="translate(-570.79 -374.18)"/><path class="e" d="M910.864,410.886a9.354,9.354,0,0,1-4.56,8.052,5.314,5.314,0,0,1-.343-.682c-.335-.78-.542-1.621-.881-2.4a7.407,7.407,0,0,0-1.559-2.292.993.993,0,0,0-.417-.288,1.123,1.123,0,0,0-.858.238,3.942,3.942,0,0,1-1.306.573,1.388,1.388,0,0,1-1.31-.39,1.96,1.96,0,0,1-.211-1.633,20.329,20.329,0,0,0,.616-3.66,3.582,3.582,0,0,0-1.559-3.188c-.951-.542-2.132-.39-3.188-.694a3.494,3.494,0,0,1-.479-.164,9.354,9.354,0,0,1,16.054,6.532Z" transform="translate(-579.69 -267.659)"/><path class="p" d="M892.681,397.113c-.168.09-.355.253-.3.44a.445.445,0,0,0,.172.218,4.088,4.088,0,0,0,1.481.76c1.056.288,2.241.152,3.192.694a3.612,3.612,0,0,1,1.559,3.188,20.581,20.581,0,0,1-.612,3.656,1.966,1.966,0,0,0,.207,1.637,1.4,1.4,0,0,0,1.31.39,3.9,3.9,0,0,0,1.306-.569,1.134,1.134,0,0,1,.861-.242,1.061,1.061,0,0,1,.417.288,7.407,7.407,0,0,1,1.559,2.3c.343.779.546,1.617.881,2.4a3.9,3.9,0,0,0,1.559,1.949,1.965,1.965,0,0,0,2.362-.249c.577-.639.53-1.516.8-2.284.468-1.337,1.773-2.175,2.592-3.328a10.467,10.467,0,0,0,1.419-4.5,3.7,3.7,0,0,0,.023-1.5,5.4,5.4,0,0,0-.413-.951c-.912-1.886-.893-4.26-2.339-5.764a7.023,7.023,0,0,0-4.307-1.668,11.1,11.1,0,0,1-4.533-1.126,4.933,4.933,0,0,0-1.228-.678,1.006,1.006,0,0,0-1.208.452.8.8,0,0,1-.16.327.519.519,0,0,1-.464.027l-2.073-.557.238,1.044a5.192,5.192,0,0,1-2.2-.39c-.039.592.627.974.834,1.528a1.415,1.415,0,0,1-.39,1.434C894.47,396.793,893.53,396.649,892.681,397.113Z" transform="translate(-578.2 -261.914)"/><path class="e" d="M855.188,761.1l-.086.939h-.035c-3.379,1.886-10.367-3.375-10.367-3.375l.729-.729a1.271,1.271,0,0,1,.32.986l1.426.078,1.707,1.843s4.618.534,5.87.238Z" transform="translate(-549.11 -485.161)"/><path class="k" d="M834.56,766.214c-2.2.491-9.9.456-9.9.456l-4.318.682s-7.405.709-8.228-1.59.647-2.155.647-2.155h.058l3.083-.249a35.277,35.277,0,0,0,5.343-2.553,31.027,31.027,0,0,0,3.2-2.869s1.286-.249,1.263,1.239l1.426.078,1.707,1.847s4.618.534,5.87.234h.436l-.2,2.28.055.066C835.3,764.039,836.524,765.777,834.56,766.214Z" transform="translate(-529.074 -485.149)"/><circle class="l" cx="0.214" cy="0.214" r="0.214" transform="translate(297.301 275.137)"/><circle class="l" cx="0.214" cy="0.214" r="0.214" transform="translate(291.763 277.538)"/><circle class="l" cx="0.214" cy="0.214" r="0.214" transform="translate(288.91 278.403)"/><circle class="l" cx="0.214" cy="0.214" r="0.214" transform="translate(293.216 277.078)"/><circle class="l" cx="0.214" cy="0.214" r="0.214" transform="translate(290.332 277.97)"/><circle class="l" cx="0.214" cy="0.214" r="0.214" transform="translate(294.686 276.396)"/><circle class="l" cx="0.214" cy="0.214" r="0.214" transform="translate(296.14 275.764)"/><path class="m" d="M834.56,775.115c-2.2.491-9.9.456-9.9.456l-4.318.682s-7.405.709-8.228-1.59.647-2.155.647-2.155h.058a3.964,3.964,0,0,0,3.278,1.341l5.324.214,5.515-.39s5.168-.152,6.01-.331a12.31,12.31,0,0,0,2.058-.756C835.3,772.94,836.524,774.678,834.56,775.115Z" transform="translate(-529.074 -494.05)"/><path class="n" d="M833.323,777.641a3.193,3.193,0,0,1-.873-.109l.062-.226a4.327,4.327,0,0,0,2.19-.1c.261-.07.518-.144.779-.222a12.315,12.315,0,0,1,1.438-.362,11.911,11.911,0,0,1,2.37-.07h.168a36.482,36.482,0,0,0,7.07-.316,2.646,2.646,0,0,0,1.512-.608l.168.168a2.869,2.869,0,0,1-1.641.674,36.672,36.672,0,0,1-7.117.316h-.172a11.718,11.718,0,0,0-2.338.07,11.58,11.58,0,0,0-1.407.355c-.261.078-.522.156-.779.222A5.924,5.924,0,0,1,833.323,777.641Z" transform="translate(-541.634 -495.956)"/><path class="e" d="M910.353,579.843l-1.387,1.306-3.445-4.412q.544-.307,1.056-.667Z" transform="translate(-586.226 -374.174)"/><path class="o" d="M925.632,493l2.728,3.769v3.948a16.526,16.526,0,0,1,0,8.364l.133,3.652s-1.314,3.356-.842,4.182c0,0-.234,2.475-3.414,4.182s-6.789,5.753-6.789,5.753a4.618,4.618,0,0,1-5.008,2l-3.477,1.473-4-5.125,5.417-2.946s1.886-2.529,3.005-2.413l4.6-5.363s.117-1.707,1.294-1.707c0,0-2.179-1.766-1.415-2.826s.121-5.776.121-5.776Z" transform="translate(-585.884 -323.48)"/><path class="e" d="M945,536.875s6.185-.117,6.949,1.473S946.867,535.99,945,536.875Z" transform="translate(-610.318 -350.175)"/><path class="e" d="M906,582.32a1.628,1.628,0,0,1-.027.308,2.081,2.081,0,0,1-1.949,1.769h-.109a2.081,2.081,0,0,1-2.081-2.081,2.021,2.021,0,0,1,.117-.674,3.57,3.57,0,0,1-1.01-2.923,4.458,4.458,0,0,0,1.465-.518,9.689,9.689,0,0,0,1.025,2.093,2.18,2.18,0,0,1,.483-.059A2.085,2.085,0,0,1,906,582.32Z" transform="translate(-583.429 -375.474)"/><path class="l" d="M902.963,577s-1.4.316-1.4.569-.316,2.553,1.216,3.508,1.376-1.317,1.376-1.317S902.842,577.741,902.963,577Z" transform="translate(-583.797 -374.742)"/><circle class="q" cx="2.081" cy="2.081" r="2.081" transform="translate(318.64 204.764)"/><circle class="m" cx="1.785" cy="1.785" r="1.785" transform="translate(318.936 205.061)"/><path class="e" d="M888.33,590.84a10.311,10.311,0,0,0,10.052,1.333v1.769s-3.769,2.592-7.183,1.021S888.33,590.84,888.33,590.84Z" transform="translate(-575.716 -383.188)"/><path class="e" d="M888.33,589.63a10.3,10.3,0,0,0,10.052,1.333v1.769s-3.769,2.592-7.183,1.021S888.33,589.63,888.33,589.63Z" transform="translate(-575.716 -382.449)"/><path class="c" d="M888.33,589.63a10.3,10.3,0,0,0,10.052,1.333v1.769s-3.769,2.592-7.183,1.021S888.33,589.63,888.33,589.63Z" transform="translate(-575.716 -382.449)"/><path class="j" d="M888.629,589.63a10.306,10.306,0,0,0,10.056,1.333v1.769s-3.769,2.592-7.187,1.021S888.629,589.63,888.629,589.63Z" transform="translate(-575.898 -382.449)"/><path class="e" d="M852.91,757.94s5.893,1.083,6.754,1.317-.234.647-.234.647S854.052,758.942,852.91,757.94Z" transform="translate(-554.12 -485.161)"/><path class="e" d="M852.56,745.262c.1,0,4.007-1.1,4.848-2.982" transform="translate(-553.907 -475.604)"/><path class="e" d="M867.19,692.1s1.582,2.081,2.6,2.023S868.118,692.019,867.19,692.1Z" transform="translate(-562.835 -444.979)"/><path class="e" d="M869.44,701s.667,1.469,1.649,1" transform="translate(-564.208 -450.413)"/><path class="j" d="M879,617.974l4.178,11.018s.589-7.089-.655-9.21A3.675,3.675,0,0,0,879,617.974Z" transform="translate(-570.042 -399.736)"/><g class="r" transform="translate(314.142 130.596)"><path d="M904.236,393.469l-.035-.16-.67-.179.074.327A5.692,5.692,0,0,0,904.236,393.469Z" transform="translate(-899.154 -393.13)"/><path d="M899.289,397.2l.07-.062a1.411,1.411,0,0,0,.39-1.434,1.889,1.889,0,0,0-.335-.534,5.506,5.506,0,0,1-.966-.285c-.039.589.624.97.83,1.524A1.17,1.17,0,0,1,899.289,397.2Z" transform="translate(-896.051 -394.198)"/><path d="M906.682,421.421a3.9,3.9,0,0,1-1.578-1.949c-.331-.779-.538-1.621-.877-2.4a7.4,7.4,0,0,0-1.559-2.3,1.021,1.021,0,0,0-.417-.288,1.138,1.138,0,0,0-.858.238,3.941,3.941,0,0,1-1.306.573,1.4,1.4,0,0,1-1.309-.39,1.968,1.968,0,0,1-.211-1.637,20.288,20.288,0,0,0,.616-3.656,3.581,3.581,0,0,0-1.559-3.188c-.951-.542-2.132-.39-3.188-.694a4.1,4.1,0,0,1-1.485-.76.7.7,0,0,1-.078-.074,1.936,1.936,0,0,0-.257.121c-.172.09-.355.253-.308.44a.475.475,0,0,0,.175.218,4.057,4.057,0,0,0,1.481.76c1.056.288,2.237.152,3.188.694a3.612,3.612,0,0,1,1.559,3.188,20.241,20.241,0,0,1-.616,3.656,1.967,1.967,0,0,0,.21,1.637,1.4,1.4,0,0,0,1.31.39,3.9,3.9,0,0,0,1.306-.569,1.127,1.127,0,0,1,.857-.242,1.033,1.033,0,0,1,.417.288,7.486,7.486,0,0,1,1.559,2.3c.343.779.546,1.617.881,2.4a3.9,3.9,0,0,0,1.559,1.949,1.928,1.928,0,0,0,2.339-.249,1.833,1.833,0,0,0,.351-.592A2.011,2.011,0,0,1,906.682,421.421Z" transform="translate(-892.301 -400.313)"/><path d="M937.84,435.463c.589-.744,1.364-1.38,1.917-2.159.109-.156.21-.32.3-.483A19.141,19.141,0,0,0,937.84,435.463Z" transform="translate(-920.091 -417.351)"/></g></g></svg>