<svg xmlns="http://www.w3.org/2000/svg" xmlns:xlink="http://www.w3.org/1999/xlink" viewBox="0 0 153.411 105.891"><defs><style>.a,.c{fill:#6c63ff;}.a,.g,.p{opacity:0.1;}.b{fill:#30374e;}.d{fill:#444053;}.e{fill:#afc0e0;}.f{fill:#fff;opacity:0.2;}.h{fill:#e3e8f4;}.i{fill:none;stroke:#535461;stroke-miterlimit:10;stroke-width:2px;}.j{opacity:0.25;}.k{fill:url(#a);}.l{fill:#434175;}.m{opacity:0.05;}.n{fill:#565387;}.o{fill:#ee8e9e;}</style><linearGradient id="a" x1="0.5" y1="1" x2="0.5" gradientUnits="objectBoundingBox"><stop offset="0" stop-color="gray" stop-opacity="0.251"/><stop offset="0.54" stop-color="gray" stop-opacity="0.122"/><stop offset="1" stop-color="gray" stop-opacity="0.102"/></linearGradient></defs><g transform="translate(0.001 0)"><path class="a" d="M30.9,196.169c2.712-4.429,8.844-3.657,13.192-1.345s8.688,5.763,13.473,5.1c4.035-.56,7.344-4.078,9.131-8.137s2.312-8.636,2.815-13.119q.948-8.448,1.9-16.907c.231-2.062.5-4.238,1.664-5.87a6.254,6.254,0,0,1,6.743-2.167,13.59,13.59,0,0,1,6.2,4.318c5.614,6.2,8.8,14.576,13.7,21.473a9.84,9.84,0,0,0,3.621,3.47c2.152.975,4.623.285,6.725-.8,6.86-3.536,11.468-10.752,16-17.485,2.2-3.272,4.889-6.772,8.554-7.129,3.856-.383,7.2,2.9,9.47,6.382,7.274,11.2,8.833,26.481,17.62,36.246a14.284,14.284,0,0,0,3.681,3.081,9.5,9.5,0,0,0,1.426.625c7.667,2.654,10.222,13.306,4.552,19.623-.122.134-.247.269-.374.4a6.272,6.272,0,0,1-2.934,1.995,6.407,6.407,0,0,1-3.2-.343c-6.706-1.957-13.332-4.948-20.266-4.8-6.747.134-13.146,3.251-19.818,4.373a67.221,67.221,0,0,1-13.585.441q-22.658-.815-45.307-1.9c-7.495-.344-14.992-.673-22.485-1.056-5.773-.3-9.45-.96-10.12-7.66C32.688,209.115,27.421,201.85,30.9,196.169Z" transform="translate(-29.72 -140.423)"/><ellipse class="b" cx="36.315" cy="5.075" rx="36.315" ry="5.075" transform="translate(69.929 95.741)"/><path class="c" d="M178.46,642.707a3.38,3.38,0,0,1,2.939.789s-.748.673-2.507-.073Z" transform="translate(-158.455 -563.785)"/><path class="c" d="M173.1,643a3.366,3.366,0,0,0-.385,3.02s.909-.437.884-2.347Z" transform="translate(-153.29 -564.095)"/><path class="c" d="M168.2,622.887s.631-1.365,3.632.285a1.615,1.615,0,0,1-1.6.925A1.953,1.953,0,0,1,168.2,622.887Z" transform="translate(-149.575 -546.228)"/><path class="c" d="M157.635,625.679s-1.5-.07-1.418,3.352a1.613,1.613,0,0,0,1.558-.993A1.951,1.951,0,0,0,157.635,625.679Z" transform="translate(-139.201 -549.104)"/><path class="c" d="M159,596.9s.673-2.378,3.829-.925c0,0-.551,2.178-3.47,1.7Z" transform="translate(-141.612 -522.989)"/><path class="c" d="M150.29,572.551s1.423-2.453,4.37-.463c0,0-.833,2.269-4.074,1.284Z" transform="translate(-134.074 -502.047)"/><path class="c" d="M146.15,548.985s1.7-2.28,4.622-.311a3.96,3.96,0,0,1-4.585.861Z" transform="translate(-130.491 -481.763)"/><path class="c" d="M142.41,524.741s1.716-2.375,4.518-.424a4.037,4.037,0,0,1-4.483.951Z" transform="translate(-127.254 -460.709)"/><path class="c" d="M142.23,499.559s1.769-3.03,4.392-1.233c0,0-1.94,2.632-4.354,1.784Z" transform="translate(-127.098 -438.387)"/><path class="c" d="M144,475.379s1.883-3.013,4.451-.966c0,0-2.3,2.656-4.421,1.5Z" transform="translate(-128.63 -417.566)"/><path class="c" d="M147.241,450.08s2.287-2.866,4.513-1.933c0,0-2.378,3.04-4.573,2.658Z" transform="translate(-131.382 -395.289)"/><path class="c" d="M151.583,425.063s2.628-3.5,4.354-2.5c0,0-1.925,2.7-4.517,3.141Z" transform="translate(-135.052 -373.15)"/><path class="c" d="M158.432,402.01s2.309-2.868,4.17-2.319c0,0-1.944,2.944-4.452,3.185Z" transform="translate(-140.877 -353.451)"/><path class="c" d="M166.572,378.424s2.58-2.771,3.808-2.4c0,0-1.8,3.008-3.89,2.979Z" transform="translate(-148.095 -333)"/><path class="c" d="M173.87,352.569s2.164-3.248,3.473-3.094c0,0-1.252,2.85-3.451,3.407Z" transform="translate(-154.482 -310.046)"/><path class="c" d="M180.635,327s1.936-2.51,3.068-2.58c0,0-1.441,3.274-3.1,3.363Z" transform="translate(-160.307 -288.365)"/><path class="c" d="M183.631,291.769l1.692-5.069s.4,4.452-1.883,6Z" transform="translate(-162.765 -255.719)"/><path class="c" d="M187.1,254.821a29.482,29.482,0,0,0-.179-4.461s1.677,3.328.288,6.283Z" transform="translate(-165.777 -224.266)"/><path class="c" d="M136.922,604.228s-2.187-1.159-3.332,2.116c0,0,1.95,1.114,3.632-1.319Z" transform="translate(-119.62 -530.365)"/><path class="c" d="M126.049,578.706s-2.652-1-3.679,2.4c0,0,2.081,1.231,3.969-1.582Z" transform="translate(-109.909 -508.329)"/><path class="c" d="M115.622,552.412s-1.989-2.032-4.622.313a3.959,3.959,0,0,0,4.658.241Z" transform="translate(-100.068 -484.984)"/><path class="c" d="M112.764,526.713s-2.018-2.126-4.534.183a4.039,4.039,0,0,0,4.573.343Z" transform="translate(-97.671 -462.676)"/><path class="c" d="M114.721,498.788s-1.528-3.157-4.281-1.57c0,0,1.73,2.775,4.2,2.117Z" transform="translate(-99.584 -437.536)"/><path class="c" d="M117.422,473.143s-1.524-3.215-4.312-1.489c0,0,1.972,2.907,4.215,2.008Z" transform="translate(-101.895 -415.355)"/><path class="c" d="M129.318,439.579s-.759-3.584-3.168-3.749c0,0,.764,3.784,2.893,4.422Z" transform="translate(-113.181 -384.79)"/><path class="c" d="M137.113,414.246s-.494-4.346-2.483-4.366c0,0,.289,3.3,2.3,5Z" transform="translate(-120.52 -362.33)"/><path class="c" d="M144,391.251s-.835-3.586-2.753-3.9c0,0,.471,3.5,2.627,4.8Z" transform="translate(-126.25 -342.831)"/><path class="c" d="M158.917,366.783s-.269-3.776-1.466-4.253c0,0-.486,3.467,1.163,4.759Z" transform="translate(-140.214 -321.349)"/><path class="c" d="M163.808,344.187s-.424-3.88-1.656-4.347c0,0-.2,3.106,1.493,4.613Z" transform="translate(-144.334 -301.711)"/><path class="c" d="M174.12,321.058S173.9,317.9,173,317.21c0,0-.616,3.523.72,4.514Z" transform="translate(-153.604 -282.125)"/><path class="c" d="M175.335,289.751l-1.184-5.211s-.838,4.39,1.287,6.158Z" transform="translate(-154.585 -253.849)"/><path class="c" d="M167.492,259.856a29.585,29.585,0,0,1-2.352-3.8s.476,3.7,3.283,5.365Z" transform="translate(-146.926 -229.2)"/><path class="c" d="M162.856,242.636s-2.348-4.895-3.286-5.246a6.391,6.391,0,0,1,3.445,5.084Z" transform="translate(-142.106 -213.041)"/><path class="d" d="M179.674,284.152l-.135-.034c1.325-5.649,1.512-9.211.525-10.029l.091-.11C181.2,274.846,181.033,278.365,179.674,284.152Z" transform="translate(-159.389 -244.709)"/><path class="d" d="M150.918,360.18l-.208-.058c.147-.519.305-1.048.475-1.568,1.48-4.535,2.709-8.743,3.463-11.963l.171-.1c-.756,3.228-1.952,7.59-3.428,12.13C151.222,359.139,151.064,359.663,150.918,360.18Z" transform="translate(-134.437 -307.467)"/><path class="d" d="M148.5,475.415a28.025,28.025,0,0,1-5.262-8.1,31.255,31.255,0,0,1-2.5-9.519,36.617,36.617,0,0,1,1.345-13.033l.172.178a33.109,33.109,0,0,0,1.241,22.247,27.8,27.8,0,0,0,5.205,8.025Z" transform="translate(-125.693 -392.519)"/><path class="c" d="M223.53,558.2a2.037,2.037,0,0,1,1.778.477s-.453.4-1.516-.044Z" transform="translate(-197.463 -490.666)"/><path class="c" d="M220.308,558.39a2.035,2.035,0,0,0-.231,1.825s.549-.269.538-1.419Z" transform="translate(-194.357 -490.865)"/><path class="c" d="M217.34,546.221s.381-.825,2.192.174a.976.976,0,0,1-.966.558A1.178,1.178,0,0,1,217.34,546.221Z" transform="translate(-192.105 -480.056)"/><path class="c" d="M210.945,547.91s-.909-.042-.858,2.026a.976.976,0,0,0,.942-.6A1.18,1.18,0,0,0,210.945,547.91Z" transform="translate(-185.826 -481.794)"/><path class="c" d="M211.75,530.5s.413-1.438,2.317-.562c0,0-.332,1.317-2.1,1.028Z" transform="translate(-187.267 -465.998)"/><path class="c" d="M206.51,515.8s.859-1.48,2.642-.28c0,0-.5,1.372-2.463.776Z" transform="translate(-182.732 -453.356)"/><path class="c" d="M204,501.542a1.944,1.944,0,0,1,2.794-.188,2.4,2.4,0,0,1-2.771.521Z" transform="translate(-180.56 -441.081)"/><path class="c" d="M201.74,486.888a1.878,1.878,0,0,1,2.732-.256,2.439,2.439,0,0,1-2.71.574Z" transform="translate(-178.604 -428.356)"/><path class="c" d="M201.64,471.662s1.076-1.831,2.654-.745c0,0-1.173,1.591-2.632,1.076Z" transform="translate(-178.517 -414.86)"/><path class="c" d="M202.68,457.033s1.142-1.823,2.69-.589c0,0-1.391,1.606-2.674.907Z" transform="translate(-179.417 -402.26)"/><path class="c" d="M204.684,441.759s1.381-1.732,2.728-1.168c0,0-1.438,1.837-2.761,1.606Z" transform="translate(-181.122 -388.813)"/><path class="c" d="M207.288,426.627s1.588-2.113,2.632-1.515a5.028,5.028,0,0,1-2.73,1.9Z" transform="translate(-183.32 -375.422)"/><path class="c" d="M211.457,412.709s1.4-1.734,2.523-1.4c0,0-1.174,1.779-2.69,1.925Z" transform="translate(-186.869 -363.53)"/><path class="c" d="M216.35,398.434s1.559-1.675,2.3-1.449c0,0-1.084,1.817-2.351,1.8Z" transform="translate(-191.205 -351.152)"/><path class="c" d="M220.76,382.792s1.309-1.964,2.1-1.872c0,0-.756,1.723-2.086,2.061Z" transform="translate(-195.065 -337.263)"/><path class="c" d="M224.862,367.34s1.17-1.517,1.855-1.56c0,0-.872,1.98-1.876,2.03Z" transform="translate(-198.596 -324.162)"/><path class="c" d="M226.631,346.061,227.652,343s.242,2.69-1.142,3.632Z" transform="translate(-200.042 -304.446)"/><path class="c" d="M228.759,323.707a17.827,17.827,0,0,0-.109-2.7,4.827,4.827,0,0,1,.173,3.8Z" transform="translate(-201.894 -285.414)"/><path class="c" d="M198.4,534.942s-1.321-.7-2.018,1.278c0,0,1.18.672,2.2-.8Z" transform="translate(-173.964 -470.467)"/><path class="c" d="M191.855,519.466s-1.6-.605-2.225,1.454c0,0,1.258.744,2.4-.955Z" transform="translate(-168.122 -457.105)"/><path class="c" d="M185.544,503.611a1.944,1.944,0,0,0-2.794.188,2.388,2.388,0,0,0,2.816.145Z" transform="translate(-162.168 -443.027)"/><path class="c" d="M183.821,488.08a1.878,1.878,0,0,0-2.741.112,2.442,2.442,0,0,0,2.763.207Z" transform="translate(-160.722 -429.546)"/><path class="c" d="M185,471.155s-.924-1.909-2.589-.95c0,0,1.046,1.677,2.541,1.281Z" transform="translate(-161.873 -414.309)"/><path class="c" d="M186.611,455.678s-.921-1.944-2.611-.9c0,0,1.192,1.758,2.549,1.211Z" transform="translate(-163.25 -400.923)"/><path class="c" d="M193.825,435.416s-.459-2.168-1.915-2.266c0,0,.461,2.287,1.749,2.673Z" transform="translate(-170.096 -382.471)"/><path class="c" d="M198.506,420.08s-.3-2.627-1.506-2.64a5.035,5.035,0,0,0,1.391,3.022Z" transform="translate(-174.501 -368.874)"/><path class="c" d="M202.7,406.179s-.5-2.168-1.664-2.359c0,0,.285,2.113,1.588,2.9Z" transform="translate(-177.998 -357.085)"/><path class="c" d="M211.723,391.392s-.165-2.287-.885-2.572c0,0-.295,2.1.7,2.877Z" transform="translate(-186.443 -344.103)"/><path class="c" d="M214.681,377.728s-.256-2.346-1-2.628a3.9,3.9,0,0,0,.9,2.79Z" transform="translate(-188.934 -332.228)"/><path class="c" d="M220.95,363.747s-.134-1.911-.673-2.327c0,0-.373,2.131.434,2.729Z" transform="translate(-194.573 -320.388)"/><path class="c" d="M221.67,344.82l-.716-3.15s-.507,2.655.777,3.723Z" transform="translate(-195.148 -303.295)"/><path class="c" d="M216.911,326.755a17.834,17.834,0,0,1-1.422-2.295,4.825,4.825,0,0,0,1.984,3.243Z" transform="translate(-190.504 -288.4)"/><path class="c" d="M214.077,316.358s-1.42-2.959-1.987-3.168a3.862,3.862,0,0,1,2.082,3.075Z" transform="translate(-187.561 -278.646)"/><path class="d" d="M224.245,341.43l-.085-.02c.807-3.415.915-5.568.317-6.062l.055-.067C225.166,335.8,225.067,337.932,224.245,341.43Z" transform="translate(-198.008 -297.764)"/><path class="d" d="M206.886,387.432l-.126-.036c.089-.313.186-.632.288-.942.892-2.742,1.637-5.286,2.093-7.232l.1-.062c-.457,1.95-1.18,4.589-2.073,7.334C207.069,386.805,206.974,387.119,206.886,387.432Z" transform="translate(-182.948 -335.742)"/><path class="d" d="M205.42,457.063a16.967,16.967,0,0,1-3.181-4.9,18.927,18.927,0,0,1-1.513-5.754,22.066,22.066,0,0,1,.815-7.881l.1.108a20.022,20.022,0,0,0,.751,13.45,16.719,16.719,0,0,0,3.147,4.85Z" transform="translate(-177.656 -387.127)"/><path class="e" d="M174.241,500.918a5.147,5.147,0,0,0-1.009.288c-7.255,2.9-7.134,21.862-7.134,21.862h-2.136a134.846,134.846,0,0,0-3.6-19.75c-2.64-10.447,8.189-19.81,10.388-21.585.247-.2.385-.3.385-.3C182.038,485.438,174.241,500.918,174.241,500.918Z" transform="translate(-142.432 -424.257)"/><path class="f" d="M171.968,481.777c-.252-.116-.511-.226-.787-.327l-.385.3c-2.2,1.775-13.028,11.138-10.388,21.585a134.17,134.17,0,0,1,3.6,19.748h1.2a133.736,133.736,0,0,0-3.6-19.75C158.974,492.937,169.7,483.609,171.968,481.777Z" transform="translate(-142.475 -424.274)"/><path class="e" d="M427.048,503.32a133.339,133.339,0,0,0-3.6,19.748h-2.14s.134-19.82-7.63-22.033a4.24,4.24,0,0,0-.512-.12s-7.8-15.48,3.11-19.486c0,0,.11.082.309.242C418.607,483.29,429.718,492.753,427.048,503.32Z" transform="translate(-359.254 -424.257)"/><path class="g" d="M243.734,500.936a5.146,5.146,0,0,0-1.009.288,131.712,131.712,0,0,1-2.486-19.471c.247-.2.385-.3.385-.3C251.532,485.456,243.734,500.936,243.734,500.936Z" transform="translate(-211.925 -424.274)"/><path class="g" d="M416.615,481.725a121.181,121.181,0,0,1-2.907,19.368,4.24,4.24,0,0,0-.512-.12s-7.8-15.48,3.11-19.486C416.3,481.483,416.412,481.565,416.615,481.725Z" transform="translate(-359.28 -424.307)"/><path class="h" d="M266.82,135.956q-1.13,4.457-2.648,9.146s-4.8,5-16.409,0a88.023,88.023,0,0,1-2.434-8.825c-2.807-12.217-6.174-35.5,1-59.412a89.007,89.007,0,0,1,9.036-20.506s6.128,7.036,10.626,20.5S273.349,110.229,266.82,135.956Z" transform="translate(-213.478 -56.36)"/><circle class="e" cx="9.634" cy="9.634" r="9.634" transform="translate(33.226 29.856)"/><path class="c" d="M311.254,306.041a6.833,6.833,0,0,1-11.164,5.285,6.9,6.9,0,0,1-1.28-1.389,6.721,6.721,0,0,1-.441-.725,6.819,6.819,0,0,1-.779-3.17v-.163a6.841,6.841,0,0,1,4.977-6.419,7.066,7.066,0,0,1,1.646-.25h.2A6.833,6.833,0,0,1,311.254,306.041Z" transform="translate(-261.561 -266.546)"/><path class="e" d="M293.567,76.862a21.726,21.726,0,0,1-19.667,0,89.006,89.006,0,0,1,9.043-20.5S289.071,63.4,293.567,76.862Z" transform="translate(-241.058 -56.36)"/><path class="e" d="M287.978,648.14q-.767,3.018-1.708,6.14-.447,1.489-.941,3s-4.8,5-16.409,0c0,0-.377-1.061-.942-3-.422-1.466-.948-3.431-1.5-5.823a29.116,29.116,0,0,0,10.452,1.844,28.8,28.8,0,0,0,11.045-2.161Z" transform="translate(-234.636 -568.544)"/><path class="h" d="M295.9,693.79q-.447,1.489-.942,3s-4.8,5-16.409,0c0,0-.377-1.061-.942-3C277.609,693.79,289.437,697.193,295.9,693.79Z" transform="translate(-244.269 -608.054)"/><path class="f" d="M302.588,299.39l-.015.011-4.963,6.408v.163a6.82,6.82,0,0,0,.779,3.17l5.848-10Z" transform="translate(-261.579 -266.485)"/><path class="f" d="M312.005,340.78l-4.065,6.086a6.9,6.9,0,0,1-1.28-1.389l4.842-5.2Z" transform="translate(-269.411 -302.092)"/><path class="f" d="M250.315,145.109a88.168,88.168,0,0,1-2.435-8.825c-2.807-12.218-6.174-35.5,1-59.413A89.335,89.335,0,0,1,256.8,58.3c-.911-1.276-1.48-1.927-1.48-1.927a89,89,0,0,0-9.039,20.5c-7.173,23.913-3.806,47.195-1,59.413a88.157,88.157,0,0,0,2.435,8.825c4.585,1.976,8.108,2.39,10.693,2.17A25.474,25.474,0,0,1,250.315,145.109Z" transform="translate(-213.435 -56.369)"/><path class="i" d="M966.7,601.4s6.287-7.823,5.87-15.658a15.206,15.206,0,0,1,2.494-9.289,25.587,25.587,0,0,1,2.959-3.632" transform="translate(-840.674 -503.354)"/><path class="c" d="M1048.115,527.624c-.449,1.091.223,5.068.223,5.068s3.278-2.351,3.727-3.442a2.136,2.136,0,0,0-3.95-1.626Z" transform="translate(-911.004 -463.092)"/><path class="c" d="M1006.095,554.812c.217,1.159,2.943,4.132,2.943,4.132s1.479-3.754,1.258-4.915a2.136,2.136,0,1,0-4.2.783Z" transform="translate(-874.738 -485.58)"/><path class="c" d="M972.449,625.559c.772.892,4.627,2.082,4.627,2.082s-.624-3.985-1.4-4.878a2.136,2.136,0,1,0-3.228,2.8Z" transform="translate(-845.2 -545.941)"/><path class="c" d="M963.857,691.07c.609,1.01,4.207,2.834,4.207,2.834s.059-4.035-.55-5.044a2.137,2.137,0,0,0-3.657,2.21Z" transform="translate(-837.946 -602.894)"/><path class="c" d="M1025.806,589.552c-1.095.437-5.065-.276-5.065-.276s2.383-3.254,3.48-3.692a2.136,2.136,0,1,1,1.586,3.968Z" transform="translate(-887.445 -514.27)"/><path class="c" d="M1015.25,662.88c-1.175.09-4.751-1.778-4.751-1.778s3.247-2.393,4.424-2.483a2.137,2.137,0,1,1,.327,4.261Z" transform="translate(-878.582 -577.607)"/><path class="c" d="M991.623,733.764c-1.145.288-4.983-.95-4.983-.95s2.8-2.907,3.941-3.193a2.136,2.136,0,1,1,1.042,4.143Z" transform="translate(-857.932 -639.009)"/><path class="j" d="M1048.115,527.624c-.449,1.091.223,5.068.223,5.068s3.278-2.351,3.727-3.442a2.136,2.136,0,0,0-3.95-1.626Z" transform="translate(-911.004 -463.092)"/><path class="j" d="M1006.095,554.812c.217,1.159,2.943,4.132,2.943,4.132s1.479-3.754,1.258-4.915a2.136,2.136,0,1,0-4.2.783Z" transform="translate(-874.738 -485.58)"/><path class="j" d="M972.449,625.559c.772.892,4.627,2.082,4.627,2.082s-.624-3.985-1.4-4.878a2.136,2.136,0,1,0-3.228,2.8Z" transform="translate(-845.2 -545.941)"/><path class="j" d="M963.857,691.07c.609,1.01,4.207,2.834,4.207,2.834s.059-4.035-.55-5.044a2.137,2.137,0,0,0-3.657,2.21Z" transform="translate(-837.946 -602.894)"/><path class="j" d="M1025.806,589.552c-1.095.437-5.065-.276-5.065-.276s2.383-3.254,3.48-3.692a2.136,2.136,0,1,1,1.586,3.968Z" transform="translate(-887.445 -514.27)"/><path class="j" d="M1015.25,662.88c-1.175.09-4.751-1.778-4.751-1.778s3.247-2.393,4.424-2.483a2.137,2.137,0,1,1,.327,4.261Z" transform="translate(-878.582 -577.607)"/><path class="j" d="M991.623,733.764c-1.145.288-4.983-.95-4.983-.95s2.8-2.907,3.941-3.193a2.136,2.136,0,1,1,1.042,4.143Z" transform="translate(-857.932 -639.009)"/><path class="i" d="M967.12,644.268s8.918-4.605,11.711-11.936a15.2,15.2,0,0,1,6.045-7.482,25.546,25.546,0,0,1,4.17-2.12" transform="translate(-841.037 -546.551)"/><path class="c" d="M1131.52,584.62c-.853.816-1.849,4.725-1.849,4.725s3.949-.822,4.8-1.637a2.138,2.138,0,1,0-2.952-3.094Z" transform="translate(-981.724 -513.051)"/><path class="c" d="M1089.922,592.5c-.269,1.149,1.016,4.977,1.016,4.977s2.864-2.834,3.141-3.989a2.136,2.136,0,0,0-4.156-.987Z" transform="translate(-947.29 -518.965)"/><path class="c" d="M1030.339,643.531c.344,1.128,3.387,3.778,3.387,3.778s1.045-3.9.7-5.024a2.137,2.137,0,0,0-4.088,1.245Z" transform="translate(-895.673 -562.166)"/><path class="c" d="M995.949,699.952c.148,1.172,2.7,4.3,2.7,4.3s1.689-3.663,1.54-4.834a2.136,2.136,0,0,0-4.238.538Z" transform="translate(-865.974 -611.305)"/><path class="c" d="M1090.449,637.825c-1.18-.043-4.519-2.3-4.519-2.3s3.5-2.008,4.677-1.965a2.136,2.136,0,0,1-.157,4.269Z" transform="translate(-943.867 -555.92)"/><path class="c" d="M1054.614,701.528c-1.112-.394-3.624-3.551-3.624-3.551s3.94-.87,5.051-.476a2.136,2.136,0,0,1-1.427,4.027Z" transform="translate(-913.627 -611.177)"/><path class="c" d="M1002.29,756.383c-1.162-.2-4.17-2.888-4.17-2.888s3.735-1.523,4.9-1.322a2.136,2.136,0,0,1-.726,4.21Z" transform="translate(-867.868 -658.568)"/><path class="k" d="M699.611,393.809,692.7,383.784s-.135-2.482-.581-3.061-.1-1.87-.1-1.87.484-.709.065-.773-.065-1.645-.065-1.645l-.032-2.514s.387-2.421.065-3a.951.951,0,0,1,.032-1.032s.387-1.387,0-1.74-.291-2.515-.194-4.223a6.412,6.412,0,0,0-.679-2.934c0-.258-2.556-2.772-2.556-3a6.391,6.391,0,0,0-2.584-1.419c-.97-.258-1.454-.451-1.422-.58s-1.518-.644-1.518-.644a3.055,3.055,0,0,1-1.875-.775c-.518-.678-2.1-.872-2.143-.878-.009-.044-.02-.09-.03-.135s-.02-.1-.03-.145c.122-.206.235-.416.338-.632.031-.066.061-.135.089-.2a2.759,2.759,0,0,0,1.591-.494,2.167,2.167,0,0,0,.773-1.545,3.388,3.388,0,0,0-.378-1.718,2.923,2.923,0,0,1-.555-1.812c.063-.269.226-.511.309-.777a2.047,2.047,0,0,0-.233-1.527c-.245-.468-.585-.88-.857-1.333a5.205,5.205,0,0,1-.682-1.883,2.943,2.943,0,0,0-.253-1.026,1.911,1.911,0,0,0-.566-.572,5.659,5.659,0,0,0-3.473-1.053,16.643,16.643,0,0,1-2.63.16,9.466,9.466,0,0,1-1.536-.4,3.971,3.971,0,0,0-3.278.168c-.944.62-1.319,1.84-1.958,2.794a22.7,22.7,0,0,0-1.824,2.445.192.192,0,0,1,.013-.051,2.923,2.923,0,0,0-.241.651,4.639,4.639,0,0,0,.144,2.137,1.483,1.483,0,0,0,.522.955,3.105,3.105,0,0,0,1.128.222c-.013.061-.03.122-.043.184a7.384,7.384,0,0,0,5.123,8.608v.2a4.888,4.888,0,0,1-.034.554h0s-3.248-.673-4.121-.215-2.585.807-2.843,1.063-.9.065-1.48,1.58-.646,3.061-1.389,3.766-1.13,1.193-1.162,1.71.1.644-.2.807-.71.838-.581,1.1a.916.916,0,0,1-.355.966,1.08,1.08,0,0,0-.453.967s-.194.71-.646.87-.744,1.225-.744,1.225L655.108,373l-2.9-3.215a1.224,1.224,0,0,0-1.728-.089l-1.426,1.286a2.816,2.816,0,0,0-1.427.85,3.679,3.679,0,0,0-.738,1.1l-.781.7a1.984,1.984,0,0,0-.2,2.19l1.86,2.057.012.018a3.285,3.285,0,0,0-1.8.733c-2.778,2.449-2.811,4.708-2.39,5.737s3.941,5,3.941,5a15.747,15.747,0,0,0,5,4.074h0l-.023.023c-.058.062-.116.135-.172.2l-.048.062-.044.062-.052.078c-.015.02-.028.042-.042.063s-.038.061-.055.093l-.036.062c-.021.04-.044.082-.066.125l-.022.042c-.027.056-.054.114-.079.175-.009.022-.017.044-.027.066-.016.042-.034.085-.05.134s-.02.055-.03.083-.028.083-.042.126-.019.061-.027.09-.027.094-.039.143-.015.056-.023.087c-.018.074-.035.151-.05.231a.57.57,0,0,1-.016.091q-.016.081-.028.165c-.007.039-.011.078-.016.117s-.013.106-.02.16l-.012.124c0,.059-.011.121-.015.183a.638.638,0,0,1-.007.113c0,.1-.011.2-.012.312-.065,3.766.156,4.319.156,4.319a2.092,2.092,0,0,0,1.715,1.287,2.189,2.189,0,0,0,.553-.03c1.68-.29,5.621-.967,7.01-.709a11.977,11.977,0,0,0,3.484-.282l.289-.055.2.64.639-.175.538.313.343.2c.638,2.163,3.228,1.426,3.228,1.426l.608.352,6.236.161a12.775,12.775,0,0,0,2.207,1.06,2.049,2.049,0,0,0,.313.069,14.155,14.155,0,0,0,1.738.032c.477-.012.847-.032.847-.032s-.063-1.693-.155-3.589a51.1,51.1,0,0,0,5.776-.473c3.33-.585,4.72-3.613,5.231-5.231a15.227,15.227,0,0,1,.327,2.008,14.373,14.373,0,0,0,.518,1.74,5.88,5.88,0,0,0,.71,1.289c2.456-.838.97-2.094.452-2.643s.356-1,.356-1,.672-.451.613-.87-.1-.87,2.1-.838S699.611,393.809,699.611,393.809ZM665.493,373.23a14.941,14.941,0,0,0,.612,2.69,3.552,3.552,0,0,1,.073,1.061c-1.3-.1-2.658-.159-2.658-.159a.312.312,0,0,1,.07.165l-.2-.046-.3-.073,2.4-3.648Zm-4.751,7.559,2.253.358.19.03a7.414,7.414,0,0,0-.117,1.064c0,.034.051.074.124.121a2.9,2.9,0,0,0-.044.538,6.212,6.212,0,0,0,2.3.884c-.016.065-.032.126-.048.184h0c-1.067-.561-2.748-.823-2.942-1.24s-5.918-2.421-5.918-2.421-.208-.11-.569-.285l1.506.285.414-.042a22.585,22.585,0,0,0,2.854.522Z" transform="translate(-560.849 -300.415)"/><path class="l" d="M744.781,683.24s-.9,5.411-5.443,6.211-19.726.64-19.726.64-8.678-1.248-11.816-8.581-5.155-10.248-2.465-10.376,17.2,4.9,18.023,4.963S745.581,664.954,744.781,683.24Z" transform="translate(-613.373 -588.443)"/><path class="m" d="M744.781,683.24s-.9,5.411-5.443,6.211-19.726.64-19.726.64-8.678-1.248-11.816-8.581-5.155-10.248-2.465-10.376,17.2,4.9,18.023,4.963S745.581,664.954,744.781,683.24Z" transform="translate(-613.373 -588.443)"/><path class="n" d="M702.995,753.139a2.076,2.076,0,0,0,1.7,1.279,2.209,2.209,0,0,0,.547-.03c1.665-.288,5.572-.96,6.948-.7a11.842,11.842,0,0,0,3.451-.28c.726-.135,1.256-.269,1.256-.269s-1.28-4.258-1.442-4.386-5.763-3.49-5.763-3.49l-4.439-.319h-.013a2.333,2.333,0,0,0-1.5.884,4.723,4.723,0,0,0-.9,3.022C702.777,752.595,702.995,753.139,702.995,753.139Z" transform="translate(-612.293 -652.324)"/><path class="m" d="M703,753.165a2.076,2.076,0,0,0,1.7,1.279,18.244,18.244,0,0,1-1.211-1.759l.023-3.106a5.46,5.46,0,0,1,1.749-4.609h-.013s-2.338.159-2.4,3.9S703,753.165,703,753.165Z" transform="translate(-612.297 -652.35)"/><path class="g" d="M830.565,692.932,834.7,689.7l6.5-6.405s-.7-.034-1.761-.079c-.269.168-1,.7-1.029,1.345-.032.783-1.758.054-2.654.5s-5.283,6.063-6.053,6.027-1.376-.39-1.7.155c0,.012-.015.023-.023.035Z" transform="translate(-720.612 -598.905)"/><path class="g" d="M709.6,745.826c.147.071.295.135.447.2a28.533,28.533,0,0,1,7.3,4.675,30.208,30.208,0,0,0,4.155,2.7c.726-.135,1.256-.269,1.256-.269s-1.28-4.258-1.442-4.386-5.763-3.49-5.763-3.49l-4.439-.319H711.1A2.343,2.343,0,0,0,709.6,745.826Z" transform="translate(-618.155 -652.324)"/><path class="l" d="M643.572,641.718c.416,1.025,3.9,4.964,3.9,4.964a15.309,15.309,0,0,0,5.348,4.226,28.488,28.488,0,0,1,7.3,4.675,33.9,33.9,0,0,0,4.449,2.872l.394.23.874.507.463.269s1.076-.861,2.14-1.727,2.1-1.715,2.12-1.763c.031-.1.447-1.185.351-1.248-.05-.034-.269-.477-.673-.991a4.548,4.548,0,0,0-1.632-1.345,4.6,4.6,0,0,1-2.113-2.2s-.134-.1-.354-.237a4.283,4.283,0,0,0-1.439-.642c-.706-.089-2.018-1.529-2.018-1.529a3.955,3.955,0,0,1-1.25-1.313c-.336-.7-5.3-4.113-5.762-4.428l12.039,7.731,2.881,1.852,4.131-3.228,6.5-6.405s-.874-.043-2.152-.1c-3.16-.135-8.771-.351-9.48-.191a5.405,5.405,0,0,1-1.762.114,6.169,6.169,0,0,1-2.655-.486c-1.057-.558-2.724-.819-2.916-1.232s-5.86-2.4-5.86-2.4-7.716-4.1-10.471-1.664S643.155,640.694,643.572,641.718Z" transform="translate(-560.837 -557.394)"/><path class="o" d="M829.82,447.417l.993,3.3,1.281,7.429,4.708.32,1.362-2.26,1.365-2.256s.847-3,1.457-5.906c.538-2.569.891-5.063.3-5.333-.519-.241-.861-1.106-1.076-2.036-.028-.114-.054-.231-.078-.348a18.083,18.083,0,0,1-.312-2.387s-9.863-.511-8.486,3.555a6.479,6.479,0,0,1,.371,2.163,5.147,5.147,0,0,1-.034.55,4.613,4.613,0,0,1-1.855,3.212Z" transform="translate(-722.205 -386.596)"/><path class="h" d="M814.58,487.277l.352,5.6.8,4.771.9,2.21.8,12.089s7.722.893,9.6-.016a.825.825,0,0,0,.34-.269c2.268-3.42,1.524-13.341,1.524-13.341l.865-6.406-.577-3.325-1.392-.148-1.076-.114s-.242.3-.592.76c-.95,1.254-2.69,3.719-2.578,4.748.159,1.41-.192,2.85-.737,3.075s-.993.608-1.088.225a1.741,1.741,0,0,1-.1-1.025,8.435,8.435,0,0,0-.417-2.21,9.459,9.459,0,0,1-.807-2.786,3.329,3.329,0,0,0-.352-2.018c-.257-.223-.608-.449-.32-1.48s-1.263-3.02-1.263-3.02Z" transform="translate(-709.015 -427)"/><path class="g" d="M890.322,478.18l.32,9.575,1.849,1.025a.827.827,0,0,0,.34-.269c2.269-3.426,1.525-13.345,1.525-13.345l.865-6.405-.577-3.324-1.393-.148c.538-2.569.89-5.063.305-5.333-.521-.241-.862-1.106-1.084-2.036h0l-1,6.779s.083.611.113,1.24a3.555,3.555,0,0,1-.081,1.193,3.983,3.983,0,0,0-.065,1.6,13.049,13.049,0,0,0-1.006,4.721C890.25,475.875,890.322,478.18,890.322,478.18Z" transform="translate(-774.557 -403.909)"/><path class="n" d="M893.635,456.82s1.614.2,2.125.873a3.009,3.009,0,0,0,1.857.765s1.537.512,1.505.64.448.321,1.41.577a6.266,6.266,0,0,1,2.556,1.41c0,.225,2.53,2.721,2.53,2.978a6.342,6.342,0,0,1,.673,2.913c-.1,1.7-.192,3.843.192,4.2s0,1.73,0,1.73a.942.942,0,0,0-.02,1.025c.32.577-.063,2.979-.063,2.979l.031,2.5s-.352,1.568.065,1.633-.065.768-.065.768-.352,1.282.1,1.857.576,3.042.576,3.042l6.86,9.953s.1,1.825-2.081,1.793-2.152.417-2.082.833-.608.865-.608.865-.865.448-.352.993,1.985,1.793-.448,2.625a5.8,5.8,0,0,1-.7-1.28,14.494,14.494,0,0,1-.512-1.728s-.225-2.434-.672-2.755-.385-1.858-.385-1.858.64-1.248-.256-1.761-13.912-7.711-13.912-7.711l-.32-9.575s-.225-7.076,1.12-9.446a3.976,3.976,0,0,1,.065-1.6,8.291,8.291,0,0,0-.032-2.435Z" transform="translate(-775.688 -402.957)"/><path class="g" d="M768.918,483s-3.219-.663-4.083-.215-2.556.807-2.825,1.057-.9.065-1.473,1.57-.642,3.041-1.377,3.746-1.12,1.185-1.153,1.7.1.64-.192.807-.7.833-.577,1.089,6.673,5.885,6.673,5.885a15.3,15.3,0,0,0,.609,2.69c.288.538-.32,8.038-.96,8.55s4.323.465,4.323.465.223-4.916.416-5.173a51.053,51.053,0,0,0-.135-5.515s-.032-4.483.385-5.668a25.8,25.8,0,0,0,.37-5.119,10.583,10.583,0,0,1,.816-2.915C770.182,485.4,768.918,483,768.918,483Z" transform="translate(-659.364 -425.291)"/><path class="n" d="M768.208,482.286s-3.22-.663-4.085-.215-2.556.8-2.818,1.057-.9.063-1.48,1.568-.64,3.043-1.377,3.747-1.12,1.185-1.153,1.7.1.64-.191.8-.7.833-.577,1.088,6.661,5.893,6.661,5.893a15.268,15.268,0,0,0,.608,2.69c.288.538-.32,8.037-.96,8.549s4.323.465,4.323.465.225-4.916.417-5.172a51.063,51.063,0,0,0-.134-5.515s-.031-4.483.385-5.668a25.962,25.962,0,0,0,.37-5.125,10.6,10.6,0,0,1,.815-2.913C769.457,484.684,768.208,482.286,768.208,482.286Z" transform="translate(-658.75 -424.676)"/><path class="g" d="M840.153,441.492a6.48,6.48,0,0,1,.371,2.163,7.348,7.348,0,0,0,8.427-3.33,18.093,18.093,0,0,1-.312-2.387S838.777,437.426,840.153,441.492Z" transform="translate(-731.034 -386.596)"/><path class="o" d="M804.82,379.646a7.333,7.333,0,1,0,.159-1.524A7.333,7.333,0,0,0,804.82,379.646Z" transform="translate(-700.567 -329.809)"/><path class="n" d="M728.406,553.06l-1.761.545a.913.913,0,0,1-.352.96,1.072,1.072,0,0,0-.448.962s-.192.7-.64.864-.737,1.211-.737,1.211l-1.473,1.7s-.545.448-.448.672-.577.288-.577.288l.352,5.706,3.042.577,1.883-.192,1.537-.577,1.345-.807.613-1.556,2.69-4.1Z" transform="translate(-628.861 -486.252)"/><path class="o" d="M674.77,587.506s-3.9-5.637-6.821-2.595,1.185,7.973,2.145,7.813,5.54-.416,5.54-.416Z" transform="translate(-581.213 -513.039)"/><rect class="b" width="8.261" height="9.388" rx="4.131" transform="translate(84.219 74.935) rotate(-42.05)"/><rect class="g" width="8.261" height="9.388" rx="4.131" transform="translate(84.219 74.935) rotate(-42.05)"/><rect class="b" width="8.261" height="9.388" rx="4.131" transform="translate(84.329 74.471) rotate(-42.05)"/><circle class="c" cx="1.825" cy="1.825" r="1.825" transform="translate(88.613 73.596)"/><circle class="g" cx="1.825" cy="1.825" r="1.825" transform="translate(88.613 73.596)"/><circle class="c" cx="1.825" cy="1.825" r="1.825" transform="translate(88.715 73.365)"/><path class="o" d="M706.5,606.008c-.032,4.227,8.71,5.123,8.71,5.123l2.233.355,1,.159.417-4.127s-.459-.069-1.032-.2c-.846-.2-1.942-.538-2.172-1.016C715.273,605.5,706.53,601.781,706.5,606.008Z" transform="translate(-615.471 -530.362)"/><path class="g" d="M806,378.317a.87.87,0,0,1,.538.239c.247.262.261.728.582.889a.662.662,0,0,0,.382.044c.851-.121,1.345-1.076,2.161-1.345a2.179,2.179,0,0,1,1.432.122,1.067,1.067,0,0,1,.475.305c.269.354.082.874.208,1.3.176.595.886.831,1.5.909a2.623,2.623,0,0,1,1.718.585,1.559,1.559,0,0,1,.305,1.239.979.979,0,0,0,0,.459c.169.48,1,.4,1.217.03.159-.276.11-.5.484-.581a1.6,1.6,0,0,1,.784.134,5.745,5.745,0,0,0,2.028.312A7.334,7.334,0,1,0,806,378.317Z" transform="translate(-701.588 -330.005)"/><path class="l" d="M803.707,357.593a.981.981,0,0,1,0-.459,1.56,1.56,0,0,0-.305-1.239,2.6,2.6,0,0,0-1.718-.585c-.615-.077-1.325-.313-1.5-.908-.126-.429.065-.951-.208-1.3a1.049,1.049,0,0,0-.473-.3,2.21,2.21,0,0,0-1.434-.124c-.816.269-1.31,1.227-2.161,1.345a.662.662,0,0,1-.382-.044c-.321-.161-.335-.627-.582-.888-.389-.412-1.127-.147-1.6-.452a1.473,1.473,0,0,1-.516-.948,4.617,4.617,0,0,1-.143-2.124c.278-1.192,1.345-2.008,2.018-3.025.633-.948.989-2.152,1.941-2.776a3.9,3.9,0,0,1,3.248-.167,10.027,10.027,0,0,0,1.521.4,17.521,17.521,0,0,0,2.607-.159,5.6,5.6,0,0,1,3.442,1.045,1.9,1.9,0,0,1,.562.569,2.907,2.907,0,0,1,.249,1.02,5.215,5.215,0,0,0,.673,1.874c.269.451.607.859.85,1.325a2.033,2.033,0,0,1,.23,1.516c-.082.269-.245.5-.305.772a2.891,2.891,0,0,0,.55,1.8,3.375,3.375,0,0,1,.374,1.707,2.151,2.151,0,0,1-.767,1.535,2.755,2.755,0,0,1-1.624.492,5.754,5.754,0,0,1-2.069-.311,1.61,1.61,0,0,0-.784-.135c-.374.077-.325.305-.484.581C804.706,358,803.876,358.073,803.707,357.593Z" transform="translate(-689.996 -304.724)"/><path class="g" d="M827.188,694.25l4.131-3.228,6.5-6.405s-.874-.043-2.152-.1a1.39,1.39,0,0,0-.453.874c-.032.783-1.758.055-2.654.5s-5.283,6.062-6.053,6.026-1.376-.39-1.7.155a.325.325,0,0,1-.023.036.911.911,0,0,1-.488.289Z" transform="translate(-717.427 -600.03)"/><path class="l" d="M783.87,679.7l2.075,6.626.325,1.041.989-.269,2.179-.6,9.706-2.666a8.456,8.456,0,0,0,3.5-.932,10.58,10.58,0,0,1,6.031-1.315c1.283.12,2.71-.433,3.9-2.62,0,0,2.69-7.936-4.1-10.222s-7.113,1.211-7.113,1.211-.035.019-.091.056c-.269.168-1,.7-1.029,1.345-.032.783-1.758.054-2.654.5s-5.283,6.063-6.053,6.027-1.376-.39-1.7.155c0,.012-.015.023-.023.035-.237.327-.95.4-1.422.416-.257.008-.444,0-.444,0l-.06.019-.5.14Z" transform="translate(-682.435 -585.701)"/><path class="g" d="M787.86,632.67l1,.159.417-4.127s-.459-.069-1.032-.2A21.171,21.171,0,0,1,787.86,632.67Z" transform="translate(-685.888 -551.545)"/><path class="g" d="M814.993,515.364s2.978-.865,2.241,7.59a23.607,23.607,0,0,1-6.244,13.8s-6.34,2.786-9.191,2.338a48.824,48.824,0,0,0-4.931-.538,7.233,7.233,0,0,0-2.882-.768c-1.6-.065-4.963-1.057-5.028-1.377s.833-5.028.448-5.38c0,0,4.483.184,4.932.508s1.088.091,1.568,0a5.459,5.459,0,0,1,4.868-.252,2.952,2.952,0,0,0,1.377-.16,1.376,1.376,0,0,1,1-.065,2.622,2.622,0,0,0,.7-.359c.093-.135.863,0,.863,0a.342.342,0,0,0,.482-.225,2.093,2.093,0,0,1,.448-.7s.865-4.868,2.5-6.693a1.046,1.046,0,0,0,.352-.929C808.365,521.635,811.154,514.338,814.993,515.364Z" transform="translate(-686.836 -453.541)"/><path class="n" d="M814.41,510.527s2.978-.865,2.242,7.59a23.607,23.607,0,0,1-6.252,13.8s-6.34,2.786-9.191,2.338-4.931-.545-4.931-.545a7.226,7.226,0,0,0-2.882-.768c-1.6-.065-4.963-1.057-5.028-1.377s.833-5.028.449-5.38c0,0,4.483.184,4.931.508s1.089.091,1.57,0a5.464,5.464,0,0,1,4.868-.252,2.945,2.945,0,0,0,1.376-.16,1.38,1.38,0,0,1,1-.065,2.821,2.821,0,0,0,.7-.352c.1-.128.865,0,.865,0a.34.34,0,0,0,.48-.223,2.092,2.092,0,0,1,.448-.7s.865-4.868,2.5-6.693a1.044,1.044,0,0,0,.352-.928C807.775,516.805,810.56,509.5,814.41,510.527Z" transform="translate(-686.326 -449.354)"/><path class="g" d="M810,746.383l4.229,5.111c.016-.015.027-.026.027-.03.032-.1.448-1.185.352-1.25a5.951,5.951,0,0,0-2.305-2.338,4.334,4.334,0,0,1-1.81-1.648Z" transform="translate(-705.05 -653.44)"/><path class="g" d="M809.851,776.837l.463.269s1.076-.861,2.14-1.727,2.1-1.715,2.12-1.763c.031-.1.447-1.185.351-1.248-.05-.034-.269-.477-.673-.991-2.868-.807-1.042,1.188-.8,1.279a2.916,2.916,0,0,0-3.683,3A4.489,4.489,0,0,0,809.851,776.837Z" transform="translate(-704.844 -675.038)"/><path class="n" d="M815.293,778.474l.609.352,6.187.16a11.952,11.952,0,0,0,2.187,1.052,1.892,1.892,0,0,0,.311.069,13.91,13.91,0,0,0,1.722.032c.474-.012.841-.032.841-.032s-.293-7.8-.514-8.608c-.1-.393-.623-.307-1.134-.11a7.425,7.425,0,0,0-1.107.561,19.784,19.784,0,0,0-3.042.48c-.417.226-1.6-.135-2.338,0s-2.048-.868-2.048-.868c-3.587-1.184-1.57,1.025-1.314,1.122a2.917,2.917,0,0,0-3.681,3C811.779,779.492,815.293,778.474,815.293,778.474Z" transform="translate(-706.75 -675.063)"/><path class="n" d="M903.131,775.518c.067,1.614,1.325,3.617,2.074,4.675.473-.012.841-.032.841-.032s-.293-7.8-.514-8.608c-.1-.393-.623-.307-1.134-.11A9.044,9.044,0,0,0,903.131,775.518Z" transform="translate(-785.653 -675.118)"/><path class="g" d="M903.131,775.518c.067,1.614,1.325,3.617,2.074,4.675.473-.012.841-.032.841-.032s-.293-7.8-.514-8.608c-.1-.393-.623-.307-1.134-.11A9.044,9.044,0,0,0,903.131,775.518Z" transform="translate(-785.653 -675.118)"/><path class="m" d="M894.62,775.732c.425,1.557.421,3.3,1.1,4.361a1.877,1.877,0,0,0,.311.069,13.9,13.9,0,0,0,1.722.032c.473-.012.841-.032.841-.032s-.293-7.8-.514-8.608c-.1-.393-.623-.307-1.134-.11a7.424,7.424,0,0,0-1.107.561S894.077,773.739,894.62,775.732Z" transform="translate(-778.199 -675.118)"/><path class="g" d="M736.77,686.94a12.781,12.781,0,0,1,5.671,4.537Z" transform="translate(-641.67 -602.125)"/><g class="p" transform="translate(102.604 44.19)"><path d="M921.425,401.26a.612.612,0,0,1-.019.067,2.18,2.18,0,0,1-.106.269A2.006,2.006,0,0,1,921.425,401.26Z" transform="translate(-903.984 -399.06)"/><path d="M792.633,385.547a2.889,2.889,0,0,1,.238-.647c-.016.055-.034.11-.047.167a4.617,4.617,0,0,0,.142,2.124,1.48,1.48,0,0,0,.516.948c.478.305,1.211.039,1.6.451.247.262.261.728.584.889a.66.66,0,0,0,.382.044c.85-.121,1.345-1.076,2.161-1.345a2.172,2.172,0,0,1,1.432.124,1.049,1.049,0,0,1,.473.3c.269.354.082.876.208,1.3.176.594.886.831,1.5.908a2.61,2.61,0,0,1,1.718.586,1.558,1.558,0,0,1,.305,1.239,1,1,0,0,0,0,.459c.169.48,1,.4,1.211.03.159-.276.112-.5.485-.581a1.592,1.592,0,0,1,.783.134,5.754,5.754,0,0,0,2.069.311,2.742,2.742,0,0,0,1.624-.492,1.886,1.886,0,0,0,.5-.605,2.037,2.037,0,0,1-.686,1.087,2.748,2.748,0,0,1-1.624.492,5.741,5.741,0,0,1-2.067-.311,1.611,1.611,0,0,0-.784-.134c-.374.077-.327.305-.484.581-.218.379-1.048.451-1.219-.03a1,1,0,0,1,0-.459,1.555,1.555,0,0,0-.3-1.239,2.622,2.622,0,0,0-1.719-.585c-.615-.077-1.325-.313-1.5-.908-.128-.429.065-.951-.208-1.3a1.059,1.059,0,0,0-.475-.3,2.206,2.206,0,0,0-1.432-.124c-.818.269-1.311,1.227-2.161,1.345a.66.66,0,0,1-.382-.044c-.323-.161-.336-.627-.584-.888-.389-.412-1.126-.147-1.6-.452a1.475,1.475,0,0,1-.518-.948A4.643,4.643,0,0,1,792.633,385.547Z" transform="translate(-792.558 -384.9)"/></g><path class="g" d="M909.369,570.385c-.586.792-1.256,1.525-1.775,2.363a4.483,4.483,0,0,0-.777,2.795,7.309,7.309,0,0,0,1.122-2,28.776,28.776,0,0,1,2.152-3.239c.134-.206,1.024-1.392.576-1.449C910.3,568.8,909.57,570.115,909.369,570.385Z" transform="translate(-788.828 -499.919)"/></g></svg>