<svg xmlns="http://www.w3.org/2000/svg" xmlns:xlink="http://www.w3.org/1999/xlink" viewBox="0 0 279.777 251.137"><defs><style>.a{fill:url(#a);}.b{fill:#6c63ff;}.c{opacity:0.05;}.d{fill:url(#b);}.e,.g{fill:none;stroke:#bdbdbd;stroke-miterlimit:10;stroke-width:3px;}.e,.i,.k,.l,.m{opacity:0.5;}.f{fill:url(#c);}.h{fill:url(#d);}.j,.m{fill:#47e6b1;}.k{fill:#4d8af0;}.l{fill:#f55f44;}.n{fill:url(#e);}.o{fill:#4f617d;}.p{fill:#ff656a;}.q{fill:#4a5c81;}.r{fill:#ff6469;}.s{fill:#fff6d5;}.t{fill:#53678b;}.u{fill:#658bc8;}.v{fill:#4a77be;}.w{fill:#cdefff;}</style><linearGradient id="a" x1="0.5" y1="1" x2="0.5" gradientUnits="objectBoundingBox"><stop offset="0" stop-color="gray" stop-opacity="0.251"/><stop offset="0.54" stop-color="gray" stop-opacity="0.122"/><stop offset="1" stop-color="gray" stop-opacity="0.102"/></linearGradient><linearGradient id="b" y2="0" xlink:href="#a"/><linearGradient id="c" y2="0" xlink:href="#a"/><linearGradient id="d" y2="0" xlink:href="#a"/><linearGradient id="e" x1="0.956" y1="1.188" x2="0.956" y2="-0.043" xlink:href="#a"/></defs><g transform="translate(0)"><circle class="a" cx="109.235" cy="109.235" r="109.235" transform="translate(19.989 15.271)"/><circle class="b" cx="106.555" cy="106.555" r="106.555" transform="translate(22.669 17.951)"/><circle class="c" cx="13.236" cy="13.236" r="13.236" transform="translate(81.534 49.682)"/><circle class="c" cx="13.236" cy="13.236" r="13.236" transform="translate(122.019 191.426)"/><circle class="c" cx="27.063" cy="27.063" r="27.063" transform="translate(121.428 82.293)"/><path class="d" d="M377.939,436.136c-13.4,0-27.674-.641-42.26-1.93-32.422-2.862-62.644-8.576-85.094-16.085-22.612-7.57-34.694-16.122-33.992-24.08.354-4.03,3.9-7.627,10.546-10.692l.337.759c-6.352,2.929-9.737,6.294-10.064,10.007s2.481,7.708,8.353,11.751c5.771,3.972,14.2,7.826,25.072,11.475,22.392,7.492,52.543,13.189,84.905,16.044s63.046,2.528,86.4-.925c11.333-1.687,20.313-4,26.692-6.895,6.493-2.95,9.953-6.352,10.283-10.108.378-4.276-3.486-8.964-11.171-13.554l.429-.719c8.1,4.836,11.991,9.662,11.576,14.347-.7,7.961-14.087,14.266-37.684,17.752A310.759,310.759,0,0,1,377.939,436.136Z" transform="translate(-205.912 -279.917)"/><path class="e" d="M448.988,399.8c7.664,4.58,11.782,9.338,11.373,13.948-1.414,16.021-56.853,24.215-123.828,18.3s-120.122-23.692-118.708-39.712c.337-3.959,4-7.425,10.3-10.347" transform="translate(-206.729 -279.016)"/><path class="f" d="M362.088,386.625c-9.659-4.165-19.517-8.812-29.3-13.817-28.98-14.822-54.848-31.457-72.84-46.847-18.13-15.5-26.108-27.961-22.47-35.078,1.843-3.6,6.483-5.606,13.786-5.953l.04.834c-6.986.337-11.387,2.18-13.084,5.5s-.594,8.076,3.334,14.026c3.857,5.845,10.229,12.588,18.936,20.033,17.941,15.356,43.752,31.953,72.675,46.745,9.767,4.995,19.6,9.635,29.25,13.793Z" transform="translate(-219.2 -214.712)"/><path class="g" d="M367.19,387.049c-9.48-4.087-19.3-8.7-29.274-13.8-59.86-30.613-102.448-67.042-95.124-81.358,1.809-3.537,6.5-5.4,13.435-5.737" transform="translate(-222.745 -215.521)"/><path class="h" d="M766.416,607.617c-8.775,0-21.15-2.869-37.856-8.626l.273-.79c31.879,10.982,47.65,11.427,52.732,1.488,1.954-3.82.132-9.615-5.268-16.756l.675-.5c5.69,7.519,7.489,13.456,5.346,17.641C779.737,605.1,774.647,607.613,766.416,607.617Z" transform="translate(-545.115 -411.81)"/><path class="g" d="M776.9,580.69c5.4,7.121,7.425,13.078,5.309,17.212-4.856,9.494-19.1,10.462-53.242-1.282" transform="translate(-545.387 -410.657)"/><g class="i" transform="translate(29.318 223.315)"><rect class="j" width="1.087" height="6.152" transform="translate(2.535)"/><rect class="j" width="1.087" height="6.152" transform="translate(6.152 2.535) rotate(90)"/></g><g class="i" transform="translate(250.098 1.087)"><rect class="j" width="1.087" height="6.152" transform="translate(2.535)"/><rect class="j" width="1.087" height="6.152" transform="translate(6.152 2.535) rotate(90)"/></g><g class="i" transform="translate(273.625 169.024)"><rect class="j" width="1.087" height="6.152" transform="translate(2.535)"/><rect class="j" width="1.087" height="6.152" transform="translate(6.152 2.535) rotate(90)"/></g><g class="i" transform="translate(32.939 15.926)"><rect class="j" width="1.087" height="6.152" transform="translate(2.531)"/><rect class="j" width="1.087" height="6.152" transform="translate(6.152 2.535) rotate(90)"/></g><path class="k" d="M376.523,796.289a1.33,1.33,0,0,1-.742-1.606.638.638,0,0,0,.03-.148h0a.675.675,0,0,0-1.2-.442h0a.637.637,0,0,0-.074.132,1.33,1.33,0,0,1-1.606.742.635.635,0,0,0-.148-.03h0a.675.675,0,0,0-.442,1.2h0a.638.638,0,0,0,.132.074,1.33,1.33,0,0,1,.742,1.606.638.638,0,0,0-.03.148h0a.675.675,0,0,0,1.2.442h0a.639.639,0,0,0,.074-.132,1.33,1.33,0,0,1,1.606-.742.636.636,0,0,0,.148.03h0a.675.675,0,0,0,.442-1.2h0A.64.64,0,0,0,376.523,796.289Z" transform="translate(-308.952 -551.874)"/><path class="k" d="M572.773,809.2a1.33,1.33,0,0,1-.742-1.606.639.639,0,0,0,.03-.148h0a.675.675,0,0,0-1.2-.442h0a.642.642,0,0,0-.074.132,1.33,1.33,0,0,1-1.606.742.64.64,0,0,0-.148-.03h0a.675.675,0,0,0-.442,1.2h0a.644.644,0,0,0,.132.074,1.33,1.33,0,0,1,.742,1.606.639.639,0,0,0-.03.148h0a.675.675,0,0,0,1.2.442h0a.641.641,0,0,0,.074-.132,1.33,1.33,0,0,1,1.606-.742.635.635,0,0,0,.148.03h0a.675.675,0,0,0,.442-1.2h0A.638.638,0,0,0,572.773,809.2Z" transform="translate(-438.97 -560.427)"/><path class="k" d="M961,291.2a1.33,1.33,0,0,1-.742-1.606.636.636,0,0,0,.03-.148h0a.675.675,0,0,0-1.2-.442h0a.641.641,0,0,0-.074.132,1.33,1.33,0,0,1-1.606.742.637.637,0,0,0-.148-.03h0a.675.675,0,0,0-.442,1.2h0a.638.638,0,0,0,.132.074,1.33,1.33,0,0,1,.742,1.606.633.633,0,0,0-.03.148h0a.675.675,0,0,0,1.2.442h0a.64.64,0,0,0,.074-.132,1.33,1.33,0,0,1,1.606-.742.638.638,0,0,0,.148.03h0a.675.675,0,0,0,.442-1.2h0A.635.635,0,0,0,961,291.2Z" transform="translate(-696.177 -217.245)"/><path class="k" d="M196.563,575a1.33,1.33,0,0,1-.742-1.606.637.637,0,0,0,.03-.148h0a.675.675,0,0,0-1.2-.442h0a.638.638,0,0,0-.074.132,1.33,1.33,0,0,1-1.606.742.636.636,0,0,0-.148-.03h0a.675.675,0,0,0-.442,1.2h0a.64.64,0,0,0,.132.074,1.33,1.33,0,0,1,.742,1.606.638.638,0,0,0-.03.148h0a.675.675,0,0,0,1.2.442h0a.639.639,0,0,0,.074-.132,1.33,1.33,0,0,1,1.606-.742.639.639,0,0,0,.148.03h0a.675.675,0,0,0,.442-1.2h0A.641.641,0,0,0,196.563,575Z" transform="translate(-189.726 -405.266)"/><circle class="l" cx="2.17" cy="2.17" r="2.17" transform="translate(0 78.179)"/><circle class="k" cx="2.17" cy="2.17" r="2.17" transform="translate(176.989 5.43)"/><circle class="m" cx="2.17" cy="2.17" r="2.17" transform="translate(57.548 0)"/><circle class="l" cx="2.17" cy="2.17" r="2.17" transform="translate(218.25 231.28)"/><path class="n" d="M636.833,560.916a2.572,2.572,0,0,0-3.466,1.1l-.263.506-.6-.314-5.369-2.788-1.168-.607a1.013,1.013,0,0,0-.53-.111c-5.14-1.687-9.264,1.563-11.923,6.682h0a16.772,16.772,0,0,0-1.853,5.629l-.061-.03a8.489,8.489,0,0,0,1.012,5.761l.088-.172a8.29,8.29,0,0,0,1.964,2.214.783.783,0,0,0,.4.513l7.35,3.817-.56,1.077a2.572,2.572,0,0,0,1.1,3.466h0l1.745-3.375,9.065,4.708.594-1.141.594-1.141.888-1.711h.03l-2.059,3.962,4.337,2.281c5.278,2.74,9.311-.78,12.241-6.233v-.03l.179-.337h0v-.03h0l.152-.3h0c2.8-5.552,3.375-10.87-1.93-13.621l-4.323-2.227-2.386,4.6h-.03l1.218-2.346.56-1.077.624-1.2-9.065-4.725,1.448-2.788ZM623,580.517l.027.024h-.03Z" transform="translate(-467.553 -395.79)"/><rect class="o" width="19.345" height="9.672" transform="matrix(0.461, -0.887, 0.887, 0.461, 158.068, 186.9)"/><path class="p" d="M693.008,604.954v-.03c-2.771,5.332-6.621,8.859-11.7,6.223l-4.087-2.123,10.05-19.314,4.084,2.123C696.433,594.472,695.778,599.622,693.008,604.954Z" transform="translate(-511.102 -416.633)"/><path class="q" d="M724,634.79Z" transform="translate(-542.094 -446.499)"/><path class="q" d="M711.569,628.8a18.783,18.783,0,0,0,3.156-4.543,19.949,19.949,0,0,0,1.745-4.485l-1.745-.908L710,627.972Z" transform="translate(-532.819 -435.945)"/><path class="q" d="M.007,0H12.7V.354a1.458,1.458,0,0,1-1.458,1.458H1.458A1.458,1.458,0,0,1,0,.354V0Z" transform="matrix(0.461, -0.887, 0.887, 0.461, 168.041, 188.682)"/><path class="r" d="M1.944,0h.472V20.553H0V1.947A1.944,1.944,0,0,1,1.944,0Z" transform="matrix(0.461, -0.887, 0.887, 0.461, 147.853, 182.959)"/><path class="r" d="M0,0H.473A1.944,1.944,0,0,1,2.416,1.944V20.553H0V0Z" transform="matrix(0.461, -0.887, 0.887, 0.461, 156.803, 165.729)"/><path class="p" d="M634.979,564.979l-10.03,19.314-5.062-2.622c-5.579-2.9-5.548-8.373-2.781-13.705h0c2.771-5.332,7.232-8.5,12.825-5.609Z" transform="translate(-470.066 -397.785)"/><path class="s" d="M616.113,602.16l2.025-3.881-2.966-1.539A7.941,7.941,0,0,0,616.113,602.16Z" transform="translate(-469.92 -421.29)"/><path class="s" d="M635.091,561.37l-2.025,3.881-2.966-1.539A8.031,8.031,0,0,1,635.091,561.37Z" transform="translate(-479.884 -397.857)"/><path class="r" d="M1.944,0H3.631V2.416H0V1.951A1.944,1.944,0,0,1,1.944,0Z" transform="matrix(0.461, -0.887, 0.887, 0.461, 153.781, 190.049)"/><path class="r" d="M0,0H3.631V2.416H1.944A1.944,1.944,0,0,1,0,.472V0Z" transform="matrix(-0.461, 0.887, -0.887, -0.461, 168.98, 165.958)"/><path class="t" d="M644.432,575.722l-8.39,16.156-7.283-6.513a3.425,3.425,0,0,1-.756-4.131l3.118-6a3.425,3.425,0,0,1,3.83-1.755Z" transform="translate(-478.24 -405.818)"/><path class="u" d="M646.413,596.624c-3.557-1.846-4.755-6.584-2.676-10.587s6.645-5.737,10.2-3.9" transform="translate(-488.243 -411.131)"/><path class="p" d="M474.589,502.807,466.23,518.9l-1.61-.837,1.134-.871,6.868-13.219.358-2Z" transform="translate(-307.817 -332.561)"/><path class="c" d="M474.589,502.807,466.23,518.9l-1.61-.837,1.134-.871,6.868-13.219.358-2Z" transform="translate(-307.817 -332.561)"/><rect class="t" width="2.416" height="2.416" transform="matrix(0.461, -0.887, 0.887, 0.461, 161.455, 180.449)"/><ellipse class="t" cx="2.416" cy="0.604" rx="2.416" ry="0.604" transform="matrix(0.461, -0.887, 0.887, 0.461, 162.512, 182.355)"/><path class="c" d="M688.86,642.316a4.141,4.141,0,0,0,5.9-1.316" transform="translate(-518.814 -450.613)"/><path class="c" d="M711.16,602a4.141,4.141,0,0,1,2.308,5.575" transform="translate(-533.588 -424.775)"/><path class="c" d="M633.86,587.469a8.7,8.7,0,0,1,3.9-7.509" transform="translate(-482.365 -410.173)"/><path class="c" d="M639.86,590.589a8.7,8.7,0,0,1,3.9-7.509" transform="translate(-486.341 -412.24)"/><circle class="v" cx="1.812" cy="1.812" r="1.812" transform="matrix(0.461, -0.887, 0.887, 0.461, 155.237, 180.621)"/><circle class="v" cx="1.208" cy="1.208" r="1.208" transform="matrix(0.461, -0.887, 0.887, 0.461, 158.58, 174.185)"/><path class="w" d="M.732,0h.354a.729.729,0,0,1,.729.729V4.694a.746.746,0,0,1-.746.746H0V.715A.729.729,0,0,1,.732,0Z" transform="translate(164.276 178.886) rotate(-101.535)"/><path class="c" d="M0,0H1.812V2.163A1.458,1.458,0,0,1,.354,3.621H0Z" transform="matrix(-0.199, -0.98, 0.98, -0.199, 166.412, 178.797)"/><path class="w" d="M1.5,0H4.671V3.753H1.5A1.5,1.5,0,0,1,0,2.251V1.519A1.5,1.5,0,0,1,1.5,0Z" transform="matrix(0.461, -0.887, 0.887, 0.461, 162.459, 187.71)"/><path class="w" d="M667.148,632.256l-.6,1.293a2.714,2.714,0,0,1-3.608.675l-1.586-.823.861-1.66Z" transform="translate(-500.588 -444.478)"/><path class="w" d="M.753,0h.364A.753.753,0,0,1,1.87.753V3.739H0V.753A.753.753,0,0,1,.753,0Z" transform="matrix(0.461, -0.887, 0.887, 0.461, 157.448, 187.222)"/><path class="c" d="M674.243,622.88a2.791,2.791,0,0,0,1.789.27l.088-.172-3.24-1.687A2.794,2.794,0,0,0,674.243,622.88Z" transform="translate(-508.227 -437.555)"/><path class="w" d="M1.505,0H4.671V3.739H1.5A1.5,1.5,0,0,1,0,2.238V1.505A1.5,1.5,0,0,1,1.5,0Z" transform="matrix(-0.461, 0.887, -0.887, -0.461, 171.838, 177.685)"/><path class="c" d="M680.646,610.377a2.791,2.791,0,0,1,1.252,1.309l-.088.172-3.24-1.687A2.794,2.794,0,0,1,680.646,610.377Z" transform="translate(-511.996 -430.115)"/><circle class="w" cx="2.805" cy="2.805" r="2.805" transform="matrix(0.461, -0.887, 0.887, 0.461, 163.558, 183.904)"/><circle class="w" cx="2.805" cy="2.805" r="2.805" transform="matrix(0.461, -0.887, 0.887, 0.461, 163.418, 183.946)"/><path class="u" d="M672.38,611.505A1.617,1.617,0,1,0,674.742,610a2.8,2.8,0,0,0-2.362,1.505Z" transform="translate(-507.686 -430.075)"/></g></svg>